<svg xmlns="http://www.w3.org/2000/svg" width="892" height="832" fill="none" viewBox="0 0 892 832">
  <g class="france-card">
    <a href="">
      <path fill="#C37107" d="M561.366 104.802c-.321 9.306-.984 19.302-2.302 22.589-2.794 6.964-10.887 19.239-19.821 34.191-5.791 9.69-9.18 21.738-12.516 33.587l-1.318 4.665c-2.292 8.02-8.838 12.917-12.997 14.986-1.91.95-5.103-.496-9.846-3.165-4.213-2.369-9.647-5.702-16.486-9.178-3.599-1.829-7.334-2.574-14.219-3.947l-1.183-.236c-18.983-3.794-32.212-5.99-35.191-7.201-4.351-1.765-9.037-5.199-15.284-9.77-3.396-2.485-7.249-5.306-11.757-8.379a67.938 67.938 0 0 0-1.643-1.085 83.303 83.303 0 0 0-2.102-1.3 105.132 105.132 0 0 0 1.375-10.205c.179-2.113.3-4.31.35-6.591.395-17.836-.531-28.688-3.339-32.05-6.426-7.686-14.736-18.314-20.025-25.193l.631-.488c4.594-3.597 9.219-7.21 11.55-11.895 1.354-3.686.777-7.273.16-11.1-.456-2.825-.933-5.78-.67-9 .56-4.805.449-9.941.335-15.128-.267-12.403-.541-25.088 8.35-34.176 7.48-7.736 39.556-19.37 49.1-12.795 3.891 2.598 5.898 7.312 7.933 12.094 2.252 5.29 4.54 10.667 9.454 13.364 3.407 2.08 7.594 2.148 11.742 2.215 4.18.07 8.318.137 11.578 2.261 2.89 2.604 5.039 5.997 7.192 9.396 3.179 5.016 6.361 10.04 11.931 12.54 2.316 1.312 4.251 2.68 6.311 4.272 1.564 1.302 2.972 2.782 4.373 4.257 2.676 2.812 5.331 5.601 8.984 7.076 3.406.98 6.339 1.723 8.866 2.363 14.532 3.685 15.705 3.983 16.731 26.354.56 2.828 1.917 5.046 3.753 6.672Z" class="region hauts-de-france"/>
    </a>
    <a href="">
      <path fill="#F7EBD1" fill-rule="evenodd" d="M192.471 240.306c5.613.527 10.605-.207 10.627-5.837-.578-2.322-1.365-4.587-2.16-6.873l-.011-.028c-1.307-3.774-2.633-7.603-3.068-11.832-.702-24.404-4.54-32.506-9.233-42.412-2.994-6.315-6.333-13.362-9.43-25.831-.602-3.616-1.589-9.143 1.786-10.66 4.034-1.273 7.608-.243 12.683-.243 1.386.092 2.776.141 4.162.189 2.22.076 4.433.153 6.614.411 1.697.2 3.375.509 5.025 1.012 5.406 1.974 7.027 7.385 8.663 12.842 1.579 5.263 3.168 10.568 8.175 12.877 5.31 3.027 11.418 3.551 17.512 4.074l.053.005c2.787.24 5.57.48 8.272.961 18.776 4.026 38.993 7.343 54.976-4.872 3.556-3.015 1.497-5.208-.438-10.078a17.502 17.502 0 0 1-.813-2.473c-.403-1.639-.552-3.35-.299-4.963 6.318-17.955 23.252-23.7 40.23-29.457 11.257-3.818 22.533-7.641 30.743-15.033 1.949-1.951 4.22-3.76 6.522-5.563 5.288 6.878 13.598 17.507 20.024 25.192 2.808 3.362 3.734 14.214 3.339 32.05a103.794 103.794 0 0 1-.128 3.372 99.518 99.518 0 0 1-.221 3.219 105.12 105.12 0 0 1-1.376 10.205c-1.507 8.135-3.678 14.569-5.256 19.254l-.353 1.041c-2.192 6.512-5.684 11.265-8.899 15.641-1.76 2.394-3.438 4.677-4.775 7.076-1.928 3.459-2.879 7.191-3.731 10.242-.463 1.671-.898 3.136-1.443 4.241-1.39 2.806-8.008 5.109-14.515 7.372-3.368 1.173-6.703 2.333-9.265 3.547-2.805 1.328-1.052 7.001.712 12.707.809 2.62 1.618 5.247 1.992 7.462.98 5.818-4.921 13.536-10.345 19.472-1.678 1.833-3.816 2.431-5.748 2.854-2.249.492-15.719-7.717-35.013-19.741-11.382-7.094-18.185-7.12-37.675-7.193h-.085c-3.197-.013-6.415 1.317-11.917 3.593-2.776 1.147-6.133 2.534-10.359 4.11l-1.037.293.003-1.11c.004-2.276-1.967-3.875-4.358-5.41-1.739-1.116-5.185-2.014-11.436-3.642-.947-.246-1.958-.509-3.038-.792a607.045 607.045 0 0 1-7.845-2.113c-8.168-2.259-19.754-6.249-27.843-9.158Z" class="region normandie" clip-rule="evenodd"/>
    </a>
    <a href="">
      <path fill="#E49935" fill-rule="evenodd" d="m246.989 261.421-.004 1.11c-.018 6.937-.221 13.726-4.066 20.066-1.839 3.034-4.404 7.093-8.082 11.582a85.793 85.793 0 0 1-11.749 11.79c-7.299 6.034-13.507 10.64-18.806 14.418-3.136 2.235-5.955 4.182-8.492 5.962-8.816 6.188-18.681 11.887-26.809 16.585a794.471 794.471 0 0 0-5.78 3.357l-.514.301c-4.443 2.607-10.552 6.185-16.734 14.829a199.965 199.965 0 0 0-3.692 5.324 7.9 7.9 0 0 1-1.201-1.372c-.77-1.389-1.037-3.026-1.102-4.76-.042-1.21.015-2.466.072-3.719.217-4.739.431-9.435-4.772-11.359-4.308-.75-8.977.768-13.321-.168-2.028-.899-.852-2.605.282-4.254.406-.592.809-1.18 1.055-1.717.196-.427.292-.822.213-1.168-1.96-1.567-4.75-.695-7.148.057-.638.2-1.251.392-1.811.525-2.17.655-4.305 1.067-6.368 2.06-7.059 4.945-7.715 4.328-12.644-3.092-.534-.795-1.026-1.64-1.521-2.491l-.032-.05-.032-.049-.033-.049c-1.44-2.459-2.89-4.936-5.242-6.388-3.015-1.994-8.638-3.361-13.452-4.53-1.066-.26-2.092-.509-3.04-.754-9.672-3.389-19.543-6.781-28.445-11.708-4.754-2.515-6.989-.117-9.127 2.179-2.64 2.832-5.135 5.51-12.041-1.392-4.34-4.251-8.92-8.655-13.264-12.849-3.578-3.659.121-5.035 3.731-6.376.955-.355 1.903-.708 2.708-1.099 4.672-1.837 10.239-6.052 3.76-9.573-2.299-1.91-10.748-4.477-7.737-8.392 1.497-1.481 4.473-1.374 7.463-1.267l1.521.047c2.33.05 4.512-.069 5.816-1.141.71-.842-.677-1.592-1.35-2.21-3.322-2.174-6.333-2.492-11.04-2.528-21.037.561-15.784-17.235-2.663-24.596a92.7 92.7 0 0 1 13.296-4.621 88.774 88.774 0 0 1 4.861-1.142c4.13-.85 8.3-1.403 12.423-1.619 18.677 2.693 25.598-2.68 32.066-7.7 5.819-4.516 11.268-8.748 24.585-6.556 6.08 1.469 10.556 7.242 14.925 12.877 1.315 1.698 2.619 3.382 3.955 4.934 1.379 1.597 2.791 3.053 4.28 4.235 3.097 2.453 6.532 3.721 10.705 2.606 2.278-.612 4.544-1.769 6.803-2.923.77-.393 1.536-.785 2.303-1.154 3.111-1.504 6.211-2.647 9.322-1.992 1.935.45 3.863.922 5.784 1.43 2.085.553 4.162 1.149 6.24 1.811.848.293 1.6.578 2.288.836l.121.044c2.509.946 4.027 1.52 5.602.937.474-.313.773-.898 1.062-1.462.178-.349.353-.689.563-.955 1.019-2.528 3.321-3.858 6.076-3.653.752-.066 1.718 0 2.829.141 1.226.157 2.63.404 4.12.666l.032.005c1.076.189 2.192.384 3.318.56a54.41 54.41 0 0 0 3.414.439c8.089 2.909 19.675 6.899 27.842 9.158 2.951.816 5.553 1.511 7.848 2.113l3.036.792c6.25 1.628 9.696 2.526 11.436 3.642 2.391 1.535 4.361 3.134 4.358 5.41Z" class="region bretagne" clip-rule="evenodd"/>
    </a>
    <a href="">
      <path fill="#E54646" fill-rule="evenodd" d="M468.702 285.009c-1.083-2.25-1.881-3.903-2.095-4.692-.385-1.412-1.597-1.879-2.83-2.268-5.919-1.864-13.531-2.274-20.487-2.649-6.757-.364-12.893-.695-16.257-2.292-9.875-4.685-12.127-9.59-14.854-15.519-.409-.887-.826-1.798-1.282-2.735-1.743-3.576-3.079-7.401-4.152-11.155-1.782-6.233-2.826-12.27-3.781-16.635-1.354-6.198-7.138-12.553-14.394-18.348.528-.734 1.069-1.471 1.618-2.219 3.215-4.376 6.707-9.129 8.899-15.641l.352-1.041c1.579-4.685 3.749-11.119 5.257-19.254l.663.4 1.439.9c.563.361 1.112.723 1.643 1.085 4.508 3.073 8.36 5.894 11.757 8.379 6.247 4.571 10.933 8.005 15.284 9.77 2.979 1.211 16.208 3.406 35.191 7.201l1.183.236c6.885 1.373 10.62 2.118 14.219 3.947 4.95 2.516 9.162 4.956 12.708 7.01a329.2 329.2 0 0 0 3.778 2.168c2.066 1.162 3.838 2.091 5.334 2.693.955.382 1.8.633 2.541.725-.064 8.21-.203 17.313-.52 24.791a404.498 404.498 0 0 1-1.557 22.278c-6.362 2.219-10.852 4.435-13.745 6.738-.824.653-1.918 2.016-3.422 3.891-1.699 2.122-3.93 4.901-6.892 8.049l-.146.154c-3.831 4.077-6.45 6.867-8.855 8.887-1.098.922-2.149 1.683-3.25 2.334-1.205-2.737-2.388-5.195-3.347-7.188Z" class="region ile-de-france" clip-rule="evenodd"/>
    </a>
    <a href="">
      <path fill="#E18E44" fill-rule="evenodd" d="M521.168 291.721c-8.873-6.114-13.492-9.401-13.87-15.863-.117-1.986.193-5.045.653-9.595.128-1.256.267-2.627.409-4.119a403.408 403.408 0 0 0 1.558-22.278c.317-7.479.456-16.582.52-24.792.235.029.46.042.674.038.484-.009.915-.102 1.297-.29 4.158-2.069 10.705-6.967 12.996-14.987l1.319-4.665.011-.032.01-.028 1.123-3.979c.463-1.633.937-3.267 1.422-4.89 1.022-3.435 2.099-6.834 3.289-10.131l.253-.693c1.807-4.919 3.877-9.602 6.407-13.834 5.724-9.58 11.105-18.061 14.964-24.751 2.163-3.75 3.852-6.937 4.857-9.44 1.319-3.287 1.982-13.283 2.302-22.589 4.402 3.897 11.572 4.4 17.159 1.797 4.124-1.648 8.079-4.779 11.247-7.285 2.092-1.653 3.838-3.037 5.064-3.543 2.356-1.237 3.322 2.098 3.667 3.803-.224 20.802 7.395 25.867 20.969 34.895 1.767 1.175 3.635 2.417 5.598 3.769 12.484 12.174 15.106 12.481 24.835 13.63l1.586.189 1.283.157c1.219.154 2.541.331 3.988.549 1.404.21 2.925.459 4.582.761 5.378 2.195 11.404 2.601 17.423 3.006 9.647.649 19.269 1.297 26.164 9.302a23.856 23.856 0 0 1 2.106 2.426c.261.34.517.686.767 1.037l.563.81c.67.979 1.315 1.991 1.96 3.002 1.35 2.117 2.697 4.23 4.258 6.041 1.654 1.919 3.546 3.499 5.93 4.385 1.714.448 3.418.907 5.114 1.374l5.741 1.591.118.033.117.033.289.082.385.105c2.134.594 4.265 1.189 6.404 1.769l3.025.812 2.324.607c4.964.432 9.946-.916 14.928.225 2.958.52 5.762 1.409 8.517 2.448 1.782.671 3.542 1.405 5.306 2.142 1.586.662 3.179 1.327 4.797 1.95a63.888 63.888 0 0 0 4.953 1.703c2.252.818 4.818 1.393 7.43 1.978 5.895 1.323 12.038 2.698 15.413 7.032l.071-.018.111.168c3.624 5.925-2.573 14.661-8.528 23.057-1.839 2.593-3.653 5.152-5.149 7.587-1.565 2.546-2.78 4.954-3.311 7.122-4.743 13.131-8.628 26.525-12.387 40.013-1.761 6.679-2.848 13.86-3.632 21.089-.595 5.483-1.015 10.995-1.421 16.34l-.033.423c-.249 3.252-.491 6.443-.773 9.523-.492 7.119-2.591 15.51-10.017 17.797-3.649 1.061-7.58.964-11.258.872l-.317-.007a383.77 383.77 0 0 1-2.338-3.185c-3.695-5.067-8.057-11.044-13.267-16.281-4.177-4.199-9.148-8.673-14.843-11.577-4.493-2.29-15.302-6.249-29.214-10.23-6.889-1.972-12.281-3.34-22.804.908-3.336 1.346-7.402 3.337-11.525 5.354-5.31 2.598-10.716 5.242-14.778 6.621-9.316 3.161-12.89 3.47-16.108 2.466-3.507-1.096-6.753-3.514-10.452-6.273-5.784-4.314-12.683-9.456-23.435-11.671-11.076-2.283-31.616-5.703-43.979-8.547-16.667-3.836-22.044-5.336-24.817-7.248Z" class="region grandest" clip-rule="evenodd"/>
    </a>
    <a href="">
      <path fill="#C92358" fill-rule="evenodd" d="M483.986 410.439c6.974-8.59 8.3-13.961 8.949-17.77 1.065-6.277-.385-11.746-3.461-20.476a1317.876 1317.876 0 0 0-2.038-5.741l-.692-1.933c-.483-1.349-.959-2.664-1.421-3.944l-.756-2.09a3683.96 3683.96 0 0 0-2.466-6.781c-3.638-9.977-6.058-16.62-6.251-18.482-.559-5.389.489-9.176 1.351-12.299.47-1.703.884-3.209.955-4.667.371-7.652-2.929-16.828-6.104-24.06 1.101-.651 2.152-1.412 3.25-2.334 2.405-2.019 5.024-4.809 8.855-8.887l.146-.154c2.962-3.148 5.193-5.927 6.892-8.049 1.504-1.875 2.598-3.238 3.422-3.891 2.893-2.303 7.383-4.518 13.745-6.737a674.72 674.72 0 0 1-.41 4.119v.044c-.26 2.543-.471 4.619-.585 6.302-.089 1.31-.117 2.382-.067 3.249.377 6.462 4.996 9.749 13.869 15.863 1.394.962 3.45 1.82 7.27 2.923 3.77 1.09 9.266 2.419 17.547 4.325 12.363 2.844 32.904 6.263 43.979 8.547 10.752 2.215 17.651 7.357 23.435 11.671 2.053 1.529 3.963 2.954 5.858 4.109 1.522.925 3.033 1.675 4.594 2.164 3.218 1.004 6.792.695 16.108-2.466 4.062-1.38 9.468-4.023 14.778-6.621 4.123-2.017 8.189-4.008 11.525-5.354 10.523-4.248 15.915-2.88 22.804-.908 13.912 3.981 24.721 7.94 29.214 10.23 2.752 1.403 5.335 3.174 7.741 5.102 2.573 2.062 4.942 4.305 7.102 6.474 5.21 5.238 9.572 11.215 13.267 16.282a383.77 383.77 0 0 0 2.338 3.185c-8.321-.205-15.252-.207-14.55 13.652-.118 2.007-1.105 4.124-1.946 5.918l-.228.489a44.057 44.057 0 0 1-.984 1.617 56.71 56.71 0 0 1-3.082 4.352c-1.878 2.417-3.924 4.705-6.03 6.942-4.098 4.354-8.439 8.516-12.255 13.071-3.546 5.52-7.416 11.342-11.336 17.24l-.289.439c-4.982 7.492-10.031 15.096-14.593 22.353-4.041 1.369-12.384 7.155-22.861 14.191-5.113 3.434-11.617 4.251-20.744 5.021-6.721.566-15.509-2.175-25.843-6.247-11.707-4.61-18.089-6.333-23.249-5.947-2.609.196-6.607 9.22-10.759 18.584-1.686 3.807-3.396 7.669-5.05 11.019-1.471 2.98-4.272 4.776-6.567 6.276-3.97 2.594-8.735 1.169-14.191-.463l-.713-.214c-3.125-.933-6.154-3.688-9.29-6.699-2.712-2.605-6.4-16.585-11.347-35.438-2.633-10.036-14.236-18.206-22.508-23.656-1.935-1.275-4.354-1.489-11.093-2.085l-4.073-.364c-3.022-.28-6.939-.622-11.162-.996Z" class="region bourgogne-franche-comte" clip-rule="evenodd"/>
    </a>
    <a href="">
      <path fill="#CECAC5" fill-rule="evenodd" d="M492.934 392.669c-.649 3.809-1.974 9.18-8.948 17.77-2.937 3.617-6.871 7.803-12.177 12.681-6.853 6.301-16.183 14.012-25.644 20.134l-.392.253c-9.326 5.998-18.392 10.493-23.741 12.644-6.693 2.69-12.747 3.97-20.242 3.094-5.238-.613-9.843-1.456-13.41-2.622-2.163-.706-3.945-1.531-5.256-2.493-3.14-2.309-11.539-11.073-23.178-28.291-3.991-5.905-7.979-12.447-11.4-17.966-1.964-3.171-3.738-6.003-5.217-8.183-7.213-10.625-11.55-15.164-17.277-19.035l-1.176-.799c-5.834-3.968-10.844-7.376-20.088-7.544l-4.522-.081a178.595 178.595 0 0 0 3.488-5.42l.371-.599c.987-1.59 1.87-3.035 2.683-4.363l.05-.076c2.284-3.721 4.005-6.522 5.795-9.061a60.551 60.551 0 0 1 1.967-2.644 116.213 116.213 0 0 1 8.489-9.664c.236-.241.472-.478.705-.712l.029-.029a131.938 131.938 0 0 1 5.388-5.073c.71-.635 1.398-1.241 2.063-1.824.283-.247.56-.492.834-.732l.064-.055c3.489-3.045 6.304-5.506 8.332-8.38l.178-.252c5.535-7.841 9.629-13.635 8.15-22.326-1.311-7.698-2.419-11.79-3.905-17.3l-.065-.229a85.868 85.868 0 0 1-.591-2.318c1.575-.428 3.2-1.105 4.529-2.559 5.424-5.936 11.325-13.654 10.345-19.472-.374-2.215-1.183-4.842-1.992-7.462-1.764-5.706-3.517-11.378-.712-12.707 1.61-.762 3.524-1.503 5.559-2.241 1.204-.435 2.452-.87 3.706-1.306 6.507-2.263 13.125-4.566 14.515-7.372.324-.657.609-1.442.884-2.32.189-.6.37-1.244.559-1.921.852-3.051 1.803-6.783 3.731-10.242.92-1.648 1.999-3.244 3.158-4.857 7.255 5.795 13.039 12.151 14.393 18.348.955 4.365 1.999 10.402 3.781 16.635a85.047 85.047 0 0 0 1.415 4.498c.296.855.613 1.705.944 2.55a56.204 56.204 0 0 0 1.793 4.107c.399.822.77 1.623 1.133 2.406l.15.329c2.726 5.929 4.978 10.834 14.853 15.519 1.586.753 3.788 1.224 6.379 1.549 1.532.194 3.2.337 4.961.456 1.578.108 3.228.195 4.917.287 6.957.375 14.569.785 20.488 2.649 1.233.39 2.444.856 2.829 2.268l.015.057c.228.779.976 2.331 1.974 4.407l.089.188.018.041.41.852.741 1.548a186.581 186.581 0 0 1 2.195 4.787c3.175 7.232 6.475 16.408 6.104 24.06-.071 1.458-.484 2.964-.955 4.667-.862 3.123-1.91 6.909-1.35 12.299.192 1.862 2.612 8.504 6.25 18.482l2.466 6.781.756 2.089 1.422 3.944.691 1.934.442 1.24 1.597 4.501c3.075 8.729 4.525 14.199 3.46 20.476Z" class="region centre-val-de-loire" clip-rule="evenodd"/>
    </a>
    <a href="">
      <path fill="#E79C49" fill-rule="evenodd" d="M302.152 369.354a198.07 198.07 0 0 1-1.886 2.877c-8.823 13.174-13.135 15.228-17.44 17.279l-.852.409c-4.718 2.289-8.474 3.624-12.102 4.914-5.677 2.018-11.04 3.924-19.279 9.202-3.852 2.468-5.11 4.478-5.976 6.604-1.736 4.27.438 8.221 3.485 13.76.428.78.873 1.59 1.326 2.437 1.336 2.495 1.446 7.385 1.368 13.773-.096 8.132-11.457 18.166-19.112 24.227-2.516 1.992-5.167 2.768-9.258 3.091-.634-1.363-1.376-2.654-2.274-3.841a16.722 16.722 0 0 0-3.699-3.608 64.528 64.528 0 0 0-4.64-2.63c-2.99-1.557-6.101-2.988-9.151-4.559-3.767-1.941-7.437-4.096-10.677-6.972-9.18-8.073-17.169-18.264-22.643-29.279-2.174-5.455-2.68-11.481-3.183-17.454-.812-9.635-1.61-19.132-9.372-25.875-1.978-2.156-4.814-2.985-7.63-3.806-2.526-.738-5.039-1.471-6.895-3.158a202.402 202.402 0 0 1 3.692-5.323c6.183-8.644 12.291-12.222 16.735-14.829l.513-.302c1.685-.99 3.513-2.047 5.434-3.154l.271-.159.075-.044c8.129-4.698 17.993-10.396 26.809-16.585l2.42-1.69.128-.094 2.791-1.95 3.153-2.228c5.299-3.778 11.507-8.384 18.806-14.417a86.91 86.91 0 0 0 7.145-6.613l.905-.952a86.763 86.763 0 0 0 3.699-4.226c3.678-4.489 6.243-8.548 8.082-11.581 3.846-6.341 4.049-13.13 4.066-20.067l1.037-.292c4.227-1.577 7.584-2.964 10.36-4.111 5.502-2.276 8.72-3.606 11.917-3.593h.085c19.49.073 26.293.099 37.675 7.193 19.294 12.025 32.764 20.233 35.013 19.741l.599-.137.62-.157c.189.788.388 1.564.591 2.317l.064.229c1.486 5.51 2.595 9.602 3.906 17.3 1.479 8.692-2.616 14.485-8.15 22.326l-.178.252c-2.028 2.874-4.843 5.335-8.332 8.381l-.064.055-.834.731-.926.814-1.137 1.01a130.63 130.63 0 0 0-5.389 5.073l-.028.029-.706.712a112.96 112.96 0 0 0-5.402 5.896 125.023 125.023 0 0 0-3.086 3.769 54.373 54.373 0 0 0-1.255 1.651l-.712.992c-1.779 2.521-3.482 5.3-5.741 8.978l-.054.083-.05.077a737.797 737.797 0 0 1-2.683 4.363l-.371.598c-.549.885-1.083 1.732-1.603 2.543Z" class="region pays-de-la-loire" clip-rule="evenodd"/>
    </a>
    <a href="">
      <path fill="#A35C2B" fill-rule="evenodd" d="M276.177 772.686a55.856 55.856 0 0 0-1.864 3.238l-2.245-.383-.075-.011-.118-.022-.117-.022-1.479-.248-1.066-.189a65.72 65.72 0 0 1-2.156-.428c-2.127-.463-4.23-1.061-6.325-1.979-14.397-8.768-32.935-15.548-48.387-20.7-3.361-2.735-3.817-7.138-7.153-11.896-.552-1.416-1.614-2.51-2.918-3.434-1.337-.947-2.926-1.716-4.483-2.468-4.351-2.1-8.428-4.068-5.884-9.459 15.324-18.08 19.689-47.867 23.709-75.279l.556-3.79.706-4.742c.634-4.176 1.286-8.259 1.999-12.194.135-1.21.663-2.726 1.375-4.387.635-1.475 1.415-3.064 2.196-4.656 2.565-5.223 5.145-10.477 2.63-11.807-1.533-.338-3.568-1.235-4.59-2.791l-.09-.141a3.89 3.89 0 0 1-.449-1.085 3.86 3.86 0 0 1-.106-.853c-.168-8.29.844-16.872 1.856-25.473.642-5.43 1.283-10.867 1.629-16.245 1.165-17.346 4.176-37.034 20.088-13.225 2.669 3.619 4.618 8.04 6.521 12.356l.097.219.032.066.737 1.672.46 1.012c.385.849.777 1.683 1.176 2.499.424.861.859 1.701 1.308 2.51.442.79.902 1.553 1.383 2.277.402-4.853-1.251-10.123-2.808-15.092l-.011-.038-.011-.044-.043-.138-.064-.192-.481-1.547-.431-1.438c-2.242-10.139-9.871-17.802-16.443-24.4-6.796-6.822-12.458-12.506-9.85-18.61 2.352-4.254 3.322-8.844 3.429-13.788 1.001-4.812-.389-9.233-1.825-13.798-.342-1.084-.688-2.178-1.001-3.287-.827-3.609-1.704-7.167-3.168-10.328 4.091-.324 6.742-1.1 9.258-3.092 7.655-6.061 19.016-16.095 19.112-24.226.078-6.389-.032-11.278-1.369-13.774-.452-.847-.898-1.657-1.325-2.436-3.047-5.54-5.221-9.491-3.486-13.761.866-2.126 2.124-4.136 5.977-6.604 8.239-5.278 13.602-7.184 19.279-9.202 3.628-1.289 7.384-2.625 12.102-4.913l.852-.41c4.305-2.051 8.617-4.105 17.44-17.279l4.522.081c9.245.168 14.255 3.576 20.089 7.544l1.176.8c5.727 3.871 10.063 8.409 17.276 19.034 1.479 2.181 3.254 5.013 5.217 8.183 3.422 5.519 7.409 12.061 11.401 17.966 11.638 17.218 20.038 25.983 23.177 28.291 1.312.963 3.094 1.788 5.257 2.494 1.66.543 3.546 1.015 5.616 1.427 2.377.474 4.993.867 7.794 1.194 7.494.877 13.549-.404 20.241-3.093 5.349-2.151 14.415-6.646 23.741-12.645.435.714.87 1.442 1.308 2.185 2.031 4.571 4.544 15.322 5.199 35.562.357 11.112.471 23.938-1.04 33.628-2.548 16.322-4.391 23.816-6.999 27.83l-2.135 3.275-.096.142c-4.586 7.045-7.897 12.12-8.489 14.156-1.094 3.765-2.319 10.519-2.476 17.123a2021.47 2021.47 0 0 1-8.133 1.498c-2.654.485-5.067.928-7.134 1.317-5.976 1.129-9.041 1.795-11.393 2.627-1.582.56-2.844 1.195-4.447 2.095-10.125 5.675-20.584 11.675-26.76 17.64-4.632 4.477-7.84 8.117-9.639 11.209-.453.776-.97 3.077-1.761 6.588-1.272 5.638-3.246 14.397-6.774 24.959-3.029 9.063-4.455 12.546-6.183 13.787-5.855 4.203-13.688 6.924-26.118 8.934-16.225 2.624-28.246 5.911-32.729 11.083-1.311 1.512-2.665 3.236-2.562 5.839.161 4.023 1.575 8.924 3.004 13.89 1.575 5.466 3.172 11.013 3.151 15.555-.072 14.028-2.167 19.673-5.218 28.533-4.101 11.922-8.207 23.35-12.169 29.724Z" class="region nouvelle-aquitaine" clip-rule="evenodd"/>
    </a>
    <a href="">
      <path fill="#6E7E11" fill-rule="evenodd" d="M698.784 569.082c5.282-1.244 11.917.823 20.245 4.454-.313 1.156-.41 2.448-.235 3.911.674 2.785 2.11 5.243 3.877 7.558 1.383 1.809 2.965 3.528 4.547 5.246.817.887 1.633 1.773 2.42 2.671 1.158 1.319 2.252 2.662 3.197 4.067 1.258 1.875 2.245 3.862 2.747 6.048.731 7.379-4.287 15.454-4.836 22.872-1.368 15.173 12.99 27.763 26.86 30.254 21.585 1.854 22.515 6.482 11.895 25.644-6.696 11.465-15.708 16.148-25.124 23.735-1.796 1.75-3.695 3.408-5.644 5.025-.92.761-1.85 1.513-2.787 2.261l-2.456 1.95c-3.1 2.453-6.204 4.91-9.112 7.559-1.828 1.667-3.578 3.408-5.199 5.272-5.567 8.093-8.449 15.587-18.374 18.526-10 4.627-19.978 6.857-30.819 5.19-11.785-1.428-22.622-7.568-33.444-13.7-8.767-4.967-17.523-9.928-26.767-12.376-4.415-1.818-6.101-1.395-8.46-.378l-.681.3c-.926.411-1.988.883-3.357 1.333-2.654.374-5.915-.142-9.361-1.083-5.887-1.604-12.316-4.445-17.206-6.205-2.523-1.145-4.9-2.041-7.155-2.715 3.766-4.829 10.281-13.091 18.171-24.916 9.775-14.646 16.029-24.2 16.321-34.726l.104-3.785c8.232 2.985 13.948 4.747 17.661 4.783 8.439.083 14.614.139 16.664-.592 2.505-.897 4.7-2.203 5.313-4.084.207-.631.356-1.297.328-1.99a3.921 3.921 0 0 0-.161-.953c-.456-1.502-1.158-3.029-1.878-4.593-1.678-3.659-3.446-7.51-2.341-11.659.912-3.41 3.892-5.924 7.829-9.248 1.593-1.346 3.347-2.824 5.182-4.549 5.452-5.121 12.783-15.636 23.748-27.331l2.512-2.689c9.526-10.206 17.965-19.249 25.776-21.087Z" class="region provence-alpes-cotes-azur" clip-rule="evenodd"/>
    </a>
    <a href="">
      <path fill="#8C3F3A" fill-rule="evenodd" d="M423.116 578.869c3.193 6.97 5.071 12.877 6.607 15.938 3.528 7.041 8.036 13.213 12.476 15.471 6.18 3.142 12.893 1.988 17.305 1.066 3.571-.743 7.395-8.536 10.42-14.699l.018-.036 1.237-2.499c.812-1.612 1.906-2.673 2.95-3.354 1.041-.678 2.652-.503 4.213.139 4.54 1.872 5.67 9.415 6.347 13.935.259 1.734.451 3.024.744 3.377 1.027 1.233 2.94 1.152 4.612.896 2.512-.384 5.577-5.468 8.848-10.894 1.433-2.376 2.905-4.817 4.387-6.957 2.174-3.139 6.636-3.657 12.826-3.703 2.822-.021 5.99 2.145 10.238 5.359 3.859 2.92 7.455 7.843 10.958 13.076.808 1.208 1.612 2.432 2.413 3.651a426.028 426.028 0 0 0 2.116 3.209c2.816 4.222 5.417 8.693 13.5 14.445 4.34 3.091 11.67 5.049 17.921 6.719 1.432.383 2.807.75 4.077 1.112 15.651 4.466 20.192 6.372 25.159 10.424 2.334 1.903 5.937 5.55 11.575 9.86 1.051.803 2.163 1.63 3.307 2.466l-1.561-.014c-3.713-.037-9.429-1.799-17.661-4.784l-.104 3.785c-.292 10.526-6.546 20.081-16.321 34.727-7.89 11.825-14.404 20.086-18.171 24.916-16.225-4.843-26.278 1.866-40.323 11.238l-3.809 2.53c-27.095 12.963-34.924 34.394-29.304 63.916l.089.909.11.984c.335 2.882.624 5.355-.926 7.903-2.406 2.353-6.293 3.176-10.156 3.994l-.118.022a80.375 80.375 0 0 0-3.425.783c-.983.256-1.931.545-2.815.896-10.049 4.888-20.377 3.589-31.096 2.243l-.998-.126-2.541-.198c-9.978-.761-20.448-1.56-27.055-10.105-6.735-7.823-15.987-10.865-25.284-13.924l-2.085-.688c-2.181-.834-4.323-1.748-6.454-2.681l-2.127-.937a337.331 337.331 0 0 0-3.952-1.727c-2.94-1.257-5.912-2.444-8.995-3.403-12.131-4.932-16.906-2.358-24.568 1.769-2.263 1.219-4.775 2.572-7.8 3.908-15.62 2.885-33.773-.955-48.883-6.35a44.36 44.36 0 0 0-2.933-.775 72.62 72.62 0 0 0-3.792-.758 57.042 57.042 0 0 1 1.864-3.238c3.963-6.373 8.068-17.801 12.17-29.723l.275-.796c2.9-8.413 4.875-14.134 4.942-27.737.004-.939-.06-1.919-.178-2.933-.253-2.134-.745-4.417-1.343-6.757l-.36-1.365-.036-.137-.093-.339-.192-.706a321.077 321.077 0 0 0-.948-3.318l-.021-.072c-.642-2.222-1.276-4.434-1.796-6.558-.635-2.594-1.098-5.058-1.187-7.261-.103-2.603 1.251-4.326 2.562-5.839 4.483-5.172 16.503-8.459 32.729-11.082 12.43-2.011 20.262-4.731 26.118-8.935 1.728-1.24 3.153-4.723 6.182-13.786 3.521-10.543 5.496-19.289 6.764-24.927l.011-.033.011-.071.032-.148c.288-1.27.541-2.375.766-3.302.363-1.497.663-2.536.93-3.03l.021-.036c1.8-3.092 5.007-6.732 9.64-11.209 6.176-5.966 16.635-11.966 26.759-17.641 1.604-.9 2.866-1.534 4.448-2.094 2.352-.833 5.417-1.498 11.393-2.627l3.025-.564 4.109-.753.207-.037Z" class="region occitanie" clip-rule="evenodd"/>
    </a>
    <a href="">
      <path fill="#7E4620" fill-rule="evenodd" d="M429.724 594.807c-1.536-3.061-3.414-8.968-6.607-15.938 2.466-.45 5.135-.94 7.926-1.461.157-6.604 1.382-13.358 2.476-17.123.592-2.036 3.903-7.111 8.489-14.156l.096-.143 2.135-3.274c2.608-4.014 4.451-11.509 6.999-27.83 1.511-9.69 1.397-22.516 1.04-33.628-.655-20.24-3.168-30.991-5.199-35.563-.438-.742-.873-1.47-1.308-2.184l.392-.252c9.462-6.123 18.791-13.834 25.644-20.134 5.306-4.879 9.241-9.065 12.177-12.682l2.448.216c3.279.289 6.283.555 8.714.78l4.073.364c6.739.596 9.158.81 11.093 2.085 8.272 5.45 19.875 13.62 22.508 23.656 4.947 18.853 8.635 32.833 11.347 35.438 3.136 3.011 6.165 5.766 9.29 6.699l.713.214c5.456 1.632 10.221 3.057 14.191.463 2.294-1.5 5.096-3.296 6.567-6.276 1.654-3.35 3.364-7.212 5.05-11.019l.011-.027c4.148-9.355 8.143-18.361 10.748-18.557 5.16-.386 11.542 1.337 23.249 5.947 10.334 4.072 19.122 6.813 25.843 6.247 9.127-.77 15.63-1.587 20.744-5.021 10.477-7.036 18.82-12.822 22.861-14.191-1.065 2.349-1.661 4.746-2.06 7.164-.292 1.777-.477 3.566-.663 5.357-.096.94-.192 1.88-.306 2.82-.62 5.302-3.357 12.438-3.888 16.298-.691 4.102 3.906 3.354 6.076 1.91 1.14-.657 2.188-1.652 3.179-2.837 1.283-1.539 2.469-3.397 3.656-5.254l.043-.066c.467-.734.934-1.465 1.407-2.177l.346-.512.503-.73c.727-1.028 1.471-1.981 2.252-2.792 7.409-8.523 26.346-11.819 29.521 2.399.517 2.089.919 4.203 1.319 6.309.27 1.432.541 2.861.848 4.274.171.786.353 1.567.549 2.343.242.955.509 1.899.812 2.83a30.096 30.096 0 0 0 1.857 4.493c4.504 7.588 5.983 14.463 1.696 22.593-5.445 9.338-.442 17.618 4.597 25.966 2.088 3.457 4.184 6.926 5.549 10.487 6.012 16.331-2.933 21.186-11.162 25.652-4.775 2.592-9.311 5.052-10.537 9.551-8.329-3.631-14.964-5.699-20.245-4.455-7.812 1.839-16.251 10.881-25.776 21.088l-2.513 2.689c-10.965 11.695-18.295 22.21-23.748 27.33-1.835 1.726-3.588 3.204-5.181 4.55-3.938 3.324-6.917 5.838-7.829 9.248-1.105 4.149.662 7.999 2.341 11.658.72 1.564 1.422 3.092 1.878 4.594.096.323.146.642.16.953a4.66 4.66 0 0 1-.071.997 7.16 7.16 0 0 1-.257.993c-.613 1.881-2.808 3.187-5.313 4.083-1.921.686-7.466.679-15.103.608a194.614 194.614 0 0 1-3.307-2.466c-5.637-4.31-9.24-7.958-11.575-9.861-4.967-4.052-9.507-5.958-25.159-10.423-1.268-.363-2.644-.73-4.077-1.113-6.25-1.67-13.581-3.627-17.921-6.719-8.083-5.751-10.684-10.222-13.499-14.445a447.02 447.02 0 0 1-2.117-3.208c-.802-1.221-1.604-2.444-2.413-3.652-2.106-3.144-4.247-6.179-6.457-8.733-1.465-1.694-2.961-3.178-4.501-4.343-4.248-3.214-7.416-5.38-10.238-5.358-6.19.045-10.652.563-12.826 3.702-1.482 2.141-2.954 4.581-4.387 6.957-3.271 5.426-6.336 10.51-8.848 10.894-1.671.256-3.585.337-4.611-.896-.293-.353-.485-1.643-.745-3.377-.677-4.519-1.807-12.063-6.347-13.934-1.561-.642-3.172-.818-4.212-.139-1.044.68-2.138 1.741-2.951 3.353l-1.237 2.499-.017.036c-3.026 6.163-6.85 13.957-10.42 14.699-4.412.922-11.126 2.077-17.306-1.066-4.44-2.258-8.948-8.43-12.476-15.471Z" class="region auvergne-rhone-alpes" clip-rule="evenodd"/>
    </a>
    <a href="">
      <path fill="#DE8A77" fill-rule="evenodd" d="M871.481 831.111c1.325 0 1.258-2.423 2.249-3.694 1.711-2.197 1.291-1.468 2.706-3.128 2.53-2.969 4.549-5.338 5.924-8.029.967-1.892.777-11.869.27-20.38-.301-5.04 1.234-7.959 7.53-16.703 1.28-1.778 1.416-2.277 1.553-5.979.138-3.702.25-10.607-.303-17.955-.36-4.782-1.003-9.664-1.631-14.431a456.09 456.09 0 0 1-.951-7.537c-.706-6.153-1.068-11.717-1.307-15.377l-.095-1.46c-.376-5.597-2.942-12.265-4.717-16.276-.444-1.007-1.839-1.108-2.884-1.162-.939-.049-1.892.646-2.819 1.611-1.548 1.612-1.77 4.404-2.008 11.981-.061 1.939-1.097 3.297-2.256 4.817l-.147.193c-1.04 1.366-6.667 3.344-12.348 5.34-2.21.777-4.427 1.556-6.386 2.303-2.7 1.03-7.379 6.507-13.73 14.022-5.329 6.307-7.099 10.931-8.091 15.597-.791 3.718-1.581 10.288-2.063 15.141-.774 7.795-.392 11.666.71 15.882 2.504 9.581 5.269 16.309 5.95 17.556.651 1.193 3.549 4.36 10.373 10.893 3.73 3.571 9.088 7.84 12.841 10.83.497.396.966.77 1.399 1.117 6.463 4.936 5.052 4.547 6.096 4.828 1.044.281 2.811 0 4.135 0Z" class="region corse" clip-rule="evenodd"/>
    </a>
  </g>
</svg>
