<svg width="42" height="40" viewBox="0 0 42 40" fill="none" xmlns="http://www.w3.org/2000/svg">
<path d="M8.97308 3.76566L28.5123 11.9105L20.6889 15.1708L1.26202 7.07191C1.69945 6.63779 2.2344 6.28704 2.84325 6.05991L8.97308 3.76566ZM12.9276 2.28791L17.5087 0.574411C19.5568 -0.19147 21.824 -0.19147 23.8721 0.574411L38.5376 6.05991C39.1434 6.28991 39.6784 6.63491 40.1158 7.07191L32.2659 10.3437L12.9276 2.28791ZM41.3601 9.68241L22.1667 17.6835V39.1023C22.748 39.0065 23.3164 38.855 23.8721 38.648L38.5376 33.1597C39.3736 32.8465 40.0926 32.2943 40.5996 31.5758C41.1066 30.8573 41.378 30.0062 41.3778 29.1347V10.0849C41.3778 9.95074 41.3709 9.81658 41.3572 9.68241M19.2111 39.1023V17.6835L0.0206888 9.68241C0.00895971 9.8163 0.00205926 9.95055 0 10.0849V29.1347C0.000118644 30.0065 0.27189 30.8578 0.779473 31.5764C1.28706 32.2949 2.00661 32.847 2.84325 33.1597L17.5058 38.648C18.0614 38.855 18.6299 39.0065 19.2111 39.1023Z" fill="black"/>
</svg>
