<svg width="25" height="24" viewBox="0 0 25 24" fill="none" xmlns="http://www.w3.org/2000/svg">
<path d="M7.25 0H17.75C21.75 0 25 3.09664 25 6.90789V16.9124C25 18.7445 24.2362 20.5015 22.8765 21.797C21.5169 23.0925 19.6728 23.8203 17.75 23.8203H7.25C3.25 23.8203 0 20.7237 0 16.9124V6.90789C0 5.0758 0.763837 3.31875 2.12348 2.02327C3.48311 0.727793 5.32718 0 7.25 0ZM7 2.38203C5.80653 2.38203 4.66193 2.83376 3.81802 3.63785C2.97411 4.44195 2.5 5.53253 2.5 6.66968V17.1506C2.5 19.5207 4.5125 21.4383 7 21.4383H18C19.1935 21.4383 20.3381 20.9865 21.182 20.1824C22.0259 19.3784 22.5 18.2878 22.5 17.1506V6.66968C22.5 4.29956 20.4875 2.38203 18 2.38203H7ZM19.0625 4.16855C19.4769 4.16855 19.8743 4.3254 20.1674 4.6046C20.4604 4.8838 20.625 5.26247 20.625 5.65732C20.625 6.05217 20.4604 6.43084 20.1674 6.71004C19.8743 6.98924 19.4769 7.14609 19.0625 7.14609C18.6481 7.14609 18.2507 6.98924 17.9576 6.71004C17.6646 6.43084 17.5 6.05217 17.5 5.65732C17.5 5.26247 17.6646 4.8838 17.9576 4.6046C18.2507 4.3254 18.6481 4.16855 19.0625 4.16855ZM12.5 5.95507C14.1576 5.95507 15.7473 6.58248 16.9194 7.69927C18.0915 8.81607 18.75 10.3308 18.75 11.9101C18.75 13.4895 18.0915 15.0042 16.9194 16.121C15.7473 17.2378 14.1576 17.8652 12.5 17.8652C10.8424 17.8652 9.25268 17.2378 8.08058 16.121C6.90848 15.0042 6.25 13.4895 6.25 11.9101C6.25 10.3308 6.90848 8.81607 8.08058 7.69927C9.25268 6.58248 10.8424 5.95507 12.5 5.95507ZM12.5 8.3371C11.5054 8.3371 10.5516 8.71355 9.84835 9.38362C9.14509 10.0537 8.75 10.9625 8.75 11.9101C8.75 12.8578 9.14509 13.7666 9.84835 14.4367C10.5516 15.1067 11.5054 15.4832 12.5 15.4832C13.4946 15.4832 14.4484 15.1067 15.1517 14.4367C15.8549 13.7666 16.25 12.8578 16.25 11.9101C16.25 10.9625 15.8549 10.0537 15.1517 9.38362C14.4484 8.71355 13.4946 8.3371 12.5 8.3371Z" fill="#F7F3F3"/>
</svg>
