<svg width="141" height="48" viewBox="0 0 141 48" fill="none" xmlns="http://www.w3.org/2000/svg">
<path d="M1.29606 0.710327L12.5911 0.710327C13.3056 0.710327 13.8768 1.29187 13.8361 1.98117C13.6097 5.74066 12.0977 9.40608 12.0977 11.8964C12.0977 12.962 12.7591 13.6719 14.3737 13.6719C16.4958 13.6719 19.2705 13.0424 21.8277 12.1821C22.6146 11.917 23.4423 12.466 23.4776 13.2716L23.7942 20.7615C23.8225 21.4457 23.2584 22.0153 22.5492 22.0153H1.24478C0.498494 22.0153 -0.0780188 21.3841 0.00863493 20.6675C0.859256 13.6701 0.878709 7.47673 0.0652251 2.08721C-0.0444184 1.36029 0.537399 0.710327 1.29783 0.710327H1.29606Z" fill="black"/>
<path d="M26.1626 11.1861C26.1626 4.72246 31.0081 0 39.7106 0C48.4131 0 53.2587 4.72246 53.2587 11.1861C53.2587 17.6498 48.4114 22.7263 39.7106 22.7263C31.0099 22.7263 26.1626 17.8619 26.1626 11.1861ZM39.7106 10.9022C40.8495 10.9022 41.8398 9.76648 41.8398 7.88331C41.8398 5.71621 40.8477 4.22644 39.7106 4.22644C38.5735 4.22644 37.5443 5.71792 37.5443 7.88331C37.5443 9.76477 38.5364 10.9022 39.7106 10.9022Z" fill="black"/>
<path d="M55.4614 11.9678C55.4614 2.94876 60.1602 0 66.8431 0C71.915 0 75.7419 0.692719 80.331 0.24801C80.9712 0.186435 81.53 0.668773 81.53 1.29136V7.39584C81.53 8.09882 80.8297 8.6051 80.1348 8.39985C77.139 7.5207 74.3908 7.17348 72.6083 7.17348C70.8257 7.17348 69.6709 7.77726 69.6709 8.98482C69.6709 10.0145 70.8097 10.6901 72.6083 10.6901C74.4068 10.6901 77.2451 10.5242 80.3081 10.1428C80.9571 10.0624 81.53 10.5516 81.53 11.1827V21.4384C81.53 22.0609 80.973 22.5433 80.3328 22.4817C75.6942 22.0353 71.5808 22.728 66.8449 22.728C60.1619 22.728 55.4632 18.7154 55.4632 11.9678H55.4614Z" fill="black"/>
<path d="M90.2553 0.710327L106.976 0.710327C107.515 0.710327 107.972 1.08662 108.065 1.59974C109.064 7.1261 113.029 13.5162 114.342 20.7684C114.46 21.42 113.935 22.017 113.252 22.017H99.9022C99.2496 22.017 98.7386 21.4714 98.8022 20.8436C99.071 18.1754 99.1559 16.5129 99.1559 15.2352C99.1559 13.9575 98.5688 13.0681 97.5395 13.0681C96.5103 13.0681 95.925 13.9199 95.925 15.2352C95.925 16.5505 96.0381 18.1771 96.2893 20.8505C96.3476 21.4765 95.8383 22.017 95.1893 22.017H84.8068C84.1206 22.017 83.5954 21.4166 83.7174 20.7632C85.0685 13.559 89.4454 7.2749 89.1536 1.83236C89.1218 1.22174 89.624 0.710327 90.2571 0.710327H90.2553ZM97.5378 9.73106C98.6767 9.73106 99.1541 8.70139 99.1541 7.35187C99.1541 5.71842 98.7509 4.33299 97.612 4.33299C96.4732 4.33299 95.9957 5.71842 95.9957 7.35187C95.9957 8.70139 96.3635 9.73106 97.5378 9.73106Z" fill="black"/>
<path d="M117.74 0.710327L129.082 0.710327C129.784 0.710327 130.345 1.28161 130.306 1.96064C130.085 5.72698 128.566 9.40266 128.566 11.8964C128.566 12.962 129.227 13.6719 130.842 13.6719C132.973 13.6719 135.758 13.0373 138.322 12.1735C139.097 11.9136 139.91 12.4523 139.944 13.2443L140.264 20.7838C140.292 21.456 139.737 22.017 139.04 22.017H117.69C116.956 22.017 116.388 21.3961 116.475 20.6914C117.331 13.6719 117.349 7.46305 116.53 2.06327C116.422 1.35002 116.995 0.710327 117.741 0.710327H117.74Z" fill="black"/>
<path d="M27.4457 27.1507C27.3431 26.4631 27.8825 25.8439 28.6005 25.8302C33.4726 25.7379 39.0715 25.2042 44.6703 25.2042C51.5726 25.2042 53.7389 26.9796 53.7389 29.8925C53.7389 32.0938 51.6822 33.3732 49.6998 33.6571C48.7448 33.7991 48.1206 34.083 48.1206 34.6166C48.1206 35.2204 48.7448 35.5044 49.6998 35.5044C53.4454 35.5044 55.5746 37.5996 55.5746 40.9024C55.5746 44.8791 51.7565 47.5081 45.7721 47.5081C40.5587 47.5081 37.7681 47.1523 34.8307 47.1523C32.6273 47.1523 30.514 47.195 28.6978 47.349C27.9462 47.4123 27.3272 46.7914 27.4139 46.0662C28.2238 39.2621 28.2344 32.4581 27.4457 27.1524V27.1507ZM40.8876 41.0786C41.8797 41.0786 42.6137 40.0489 42.6137 38.8414C42.6137 37.314 41.8797 36.1423 40.8876 36.1423C39.823 36.1423 39.2359 37.314 39.2359 38.8414C39.2359 40.0489 39.823 41.0786 40.8876 41.0786ZM41.3474 33.2825C42.1556 33.079 42.5022 32.3161 42.5022 31.348C42.5022 30.0686 42.0248 28.9688 40.8859 28.9688C39.5666 28.9688 39.266 30.356 39.3597 31.8252C39.4216 32.8002 40.3695 33.5288 41.3457 33.2825H41.3474Z" fill="black"/>
<path d="M57.668 36.3203C57.668 29.8566 62.5153 25.1342 71.216 25.1342C79.9168 25.1342 84.7641 29.8566 84.7641 36.3203C84.7641 42.7839 79.9168 47.8605 71.216 47.8605C62.5153 47.8605 57.668 42.996 57.668 36.3203ZM71.216 36.0363C72.3549 36.0363 73.3452 34.9006 73.3452 33.0175C73.3452 30.8504 72.3531 29.3606 71.216 29.3606C70.0789 29.3606 69.0497 30.8521 69.0497 33.0175C69.0497 34.8989 70.0418 36.0363 71.216 36.0363Z" fill="black"/>
<path d="M92.2547 35.4325C92.2547 32.5179 89.1988 31.9655 87.8265 27.308C87.6107 26.5742 88.1819 25.8439 88.9707 25.8439H99.4116C100.174 25.8439 100.734 26.5263 100.572 27.2481C100.384 28.0794 100.294 28.9089 100.294 29.6085C100.294 30.9939 100.881 31.9518 101.91 31.9518C102.94 31.9518 103.527 30.9939 103.527 29.6085C103.527 28.9089 103.438 28.0794 103.249 27.2481C103.086 26.528 103.647 25.8439 104.409 25.8439H114.452C115.243 25.8439 115.81 26.5742 115.596 27.3097C114.226 32.0287 111.165 32.5453 111.165 35.4308C111.165 38.3162 115.066 38.9303 116.443 45.7822C116.587 46.4903 116.021 47.1488 115.274 47.1488H103.824C103.097 47.1488 102.538 46.5228 102.648 45.8267C102.971 43.7742 103.122 42.1048 103.122 40.899C103.122 39.5135 102.535 38.5557 101.507 38.5557C100.48 38.5557 99.8908 39.5152 99.8908 40.899C99.8908 42.1048 100.043 43.7759 100.365 45.8267C100.474 46.5228 99.9156 47.1488 99.1887 47.1488H88.1395C87.3932 47.1488 86.8291 46.492 86.9706 45.7839C88.3464 38.8636 92.2529 38.4069 92.2529 35.4308L92.2547 35.4325Z" fill="black"/>
</svg>
