<svg width="432" height="373" viewBox="0 0 432 373" fill="none" xmlns="http://www.w3.org/2000/svg">
<path d="M34.0303 45.4398C-11.6391 66.2022 -1.58001 86.4984 8.83998 95.1444C85.0363 29.2687 111.941 27.062 213.093 26.0964C294.015 25.324 384.958 77.4245 420.476 103.606L430.53 88.1159C440.763 63.1109 347.096 16.2266 238.475 2.16128C151.578 -9.09096 65.9712 26.3252 34.0303 45.4398Z" fill="#C6711B"/>
<path d="M8.53711 94.9169C141.407 -38.6638 339.437 43.6226 421.843 101.463C370.931 199.07 255.357 323.1 203.934 372.914C163.433 372.914 56.7942 187.583 8.53711 94.9169Z" fill="#EBA440"/>
<ellipse cx="94.2083" cy="100.68" rx="15.3509" ry="18.4475" transform="rotate(43.2312 94.2083 100.68)" fill="#CE7A1E"/>
<ellipse cx="93.6655" cy="185.307" rx="5.75037" ry="6.91033" transform="rotate(43.2312 93.6655 185.307)" fill="#CE7A1E"/>
<ellipse cx="156.419" cy="283.426" rx="8.75276" ry="10.5184" transform="rotate(43.2312 156.419 283.426)" fill="#CE7A1E"/>
<ellipse cx="311.037" cy="120.863" rx="10.7887" ry="12.965" transform="rotate(43.2312 311.037 120.863)" fill="#CE7A1E"/>
<ellipse cx="269.465" cy="244.798" rx="16.0023" ry="19.2303" transform="rotate(43.2312 269.465 244.798)" fill="#CE7A1E"/>
<ellipse cx="170" cy="128.336" rx="30.3072" ry="41.8154" transform="rotate(14.2769 170 128.336)" fill="white"/>
<ellipse cx="170" cy="128.336" rx="30.3072" ry="41.8154" transform="rotate(14.2769 170 128.336)" fill="white"/>
<ellipse cx="170" cy="128.336" rx="30.3072" ry="41.8154" transform="rotate(14.2769 170 128.336)" fill="white"/>
<ellipse cx="234.707" cy="136.656" rx="30.3072" ry="41.8154" transform="rotate(14.2769 234.707 136.656)" fill="white"/>
<ellipse cx="234.707" cy="136.656" rx="30.3072" ry="41.8154" transform="rotate(14.2769 234.707 136.656)" fill="white"/>
<ellipse cx="234.707" cy="136.656" rx="30.3072" ry="41.8154" transform="rotate(14.2769 234.707 136.656)" fill="white"/>
<ellipse cx="232.989" cy="137.699" rx="18.5174" ry="25.5488" transform="rotate(14.2769 232.989 137.699)" fill="white"/>
<ellipse cx="232.989" cy="137.699" rx="18.5174" ry="25.5488" transform="rotate(14.2769 232.989 137.699)" fill="white"/>
<ellipse cx="232.989" cy="137.699" rx="18.5174" ry="25.5488" transform="rotate(14.2769 232.989 137.699)" fill="black"/>
<ellipse cx="170" cy="128.336" rx="18.5174" ry="25.5488" transform="rotate(14.2769 170 128.336)" fill="white"/>
<ellipse cx="170" cy="128.336" rx="18.5174" ry="25.5488" transform="rotate(14.2769 170 128.336)" fill="white"/>
<ellipse cx="170" cy="128.336" rx="18.5174" ry="25.5488" transform="rotate(14.2769 170 128.336)" fill="black"/>
<path d="M162.311 188.285C161.153 187.566 160.205 187.158 159.433 186.985C155.281 186.054 157.206 193.352 160.517 196.025C167.823 201.923 182.369 206.852 194.226 206.968C209.239 207.114 227.832 197.244 234.523 191.819C239.473 187.806 229.203 189.097 223.395 191.719C193.307 205.301 168.829 192.329 162.311 188.285Z" fill="black"/>
<path d="M146.231 85.3461C163.865 75.5768 179.772 79.1768 184.033 80.414C187.425 81.3991 186.216 76.9341 182.835 75.9105C177.737 74.367 169.768 73.854 163.332 74.9133C154.14 76.4261 143.392 83.0689 139.642 86.3484C136.875 88.7686 143.015 87.1276 146.231 85.3461Z" fill="black"/>
<path d="M266.979 93.5032C267.789 94.2085 268.434 94.5828 268.942 94.7152C271.989 95.5093 270.218 89.4762 268.156 87.0969C263.569 81.805 254.274 77.191 246.786 76.8817C237.437 76.4956 226.032 84.6628 221.96 89.2134C218.974 92.5509 225.389 91.5515 229.248 89.2789C247.586 78.4801 262.877 89.935 266.979 93.5032Z" fill="black"/>
</svg>
