<svg width="561" height="532" viewBox="0 0 561 532" fill="none" xmlns="http://www.w3.org/2000/svg">
<path d="M125.044 445.859C-38.8491 330.689 22.5264 168.669 76.4833 88.6356C203.957 -10.9184 311.195 2.74563 436.645 88.6357C590.598 194.041 537.814 436.098 511.51 467.331C485.206 498.564 288.938 561.029 125.044 445.859Z" fill="#7D4220" stroke="#F1BB7B" stroke-width="38"/>
<path d="M92.7521 105.684C102.543 100.818 138.065 100.168 153.826 149.026C173.526 210.099 176.481 183.503 188.302 202.219C200.122 220.935 172.541 240.636 196.182 240.636C219.823 240.636 271.046 250.486 282.866 275.112C294.687 299.739 320.298 299.739 327.194 301.709C334.089 303.679 350.835 318.454 356.745 332.245C362.655 346.036 384.326 350.961 395.162 352.931C405.998 354.901 405.998 374.602 417.818 385.438C429.639 396.273 470.026 435.675 481.846 437.645C493.667 439.615 476.921 461.286 447.37 470.152C417.818 479.017 386.297 486.898 375.461 475.077C364.625 463.257 356.745 500.688 327.194 487.883C297.642 475.077 279.911 479.017 266.121 487.883C252.33 496.748 219.823 464.242 208.003 437.645C196.182 411.049 178.451 444.541 169.586 431.735C160.72 418.929 144.96 410.064 133.139 409.079C121.318 408.094 103.588 377.557 105.558 362.782C107.528 348.006 111.468 328.305 92.7521 326.335C74.0362 324.365 43.4997 276.097 55.3202 226.845C67.1408 177.592 55.3202 179.563 55.3202 173.652C55.3202 167.742 76.3939 158.606 80.9314 137.205C85.469 115.805 82.9615 110.55 92.7521 105.684Z" fill="#F3AA4E"/>
<path d="M156.629 60.0098C145.256 63.6893 129.334 78.6749 156.629 109.181C190.747 147.314 176.698 175.411 202.789 190.464C228.88 205.516 255.974 223.579 271.026 245.656C286.079 267.732 300.128 278.771 317.187 282.785C334.246 286.799 363.347 295.83 377.396 321.921C391.445 348.012 394.456 340.987 415.529 352.026C436.602 363.064 448.644 381.127 459.682 395.176C470.721 409.224 481.759 432.305 498.819 425.28C515.878 418.256 523.906 357.043 518.888 352.026C513.871 347.008 528.143 325.699 518.888 288.806C515.47 275.179 521.173 258.581 506.846 248.837C496.889 242.066 520.895 226.589 506.846 208.526C492.798 190.464 490.536 189.184 474.48 191.191C458.424 193.198 447.135 170.798 453.156 163.774C459.177 156.749 448.644 121.223 421.55 131.258C414.414 133.901 408.129 127.809 407.46 114.094C405.453 108.074 390.067 83.4358 365.983 90.6609C335.878 99.6923 347.705 36.998 296.114 52.9855C267.779 61.7661 282.155 52.9402 251.861 47.7775C221.568 42.6147 209.813 47.366 197.772 52.9855C182.719 60.0098 176.699 67.0341 156.629 60.0098Z" fill="#F3AA4E"/>
<path d="M144.021 222.348C146.12 224.041 149.167 219.981 151.938 221.376C152.863 221.837 153.471 222.421 154.046 223.031C154.332 223.335 154.598 223.642 154.914 223.955C155.269 224.289 155.475 224.516 156.374 225.069C157.437 225.894 158.492 226.84 159.661 227.512C161.455 228.561 162.614 229.998 163.65 231.218C164.626 232.377 165.44 233.319 166.348 233.466C168.209 233.773 166.24 236.17 168.345 237.169C170.449 238.17 171.165 239.385 171.902 241.446C172.534 243.209 175.383 246.905 177.705 248.306C178.102 248.547 178.472 248.713 178.824 248.801C181.056 249.399 181.495 251.977 182.164 254.003C182.203 254.175 182.237 254.334 182.27 254.48C182.395 255.036 182.334 255.474 182.235 255.82C182.193 255.968 182.028 256.094 181.845 256.169C181.845 256.17 181.845 256.17 181.845 256.17C181.617 256.264 181.361 256.277 181.275 256.151C181.058 255.836 180.739 255.469 180.285 255.228C179.918 255.071 179.325 254.921 178.599 254.797C176.018 254.385 176.664 253.095 174.562 251.636C174.362 251.5 174.122 251.348 173.863 251.209C170.892 249.587 168.296 249.498 166.234 246.072C164.164 242.649 160.389 245.441 158.174 239.903C157.918 239.269 157.64 238.749 157.352 238.331C156.379 236.932 155.218 236.561 153.953 236.452C153.325 236.401 152.665 236.413 152.058 236.464C151.758 236.492 151.47 236.531 151.276 236.624C151.18 236.671 151.113 236.735 151.086 236.815C151.053 236.893 151.085 236.994 150.995 237.032C151.256 237.2 151.255 237.238 151.23 237.277C151.199 237.312 151.119 237.327 151.015 237.334C150.816 237.35 150.531 237.331 150.231 237.292C145.058 236.65 138.695 232.157 135.499 231.358C134.37 231.088 133.097 230.805 131.739 230.455C129.134 229.67 126.502 229.395 122.292 226.299C121.532 225.683 120.678 224.906 119.922 223.982C117.217 220.561 112.76 216.934 111.206 211.406C110.534 208.918 109.885 205.733 110.334 202.308C111.033 198.744 111.801 195.36 112.388 193.364C113.375 190.021 113.604 189.21 113.04 185.99C112.714 184.138 113.054 181.613 114.273 179.464C114.881 178.383 115.761 178.59 116.194 179.697C116.821 181.304 116.406 182.616 117.494 183.445C119.667 185.1 120.497 185.816 119.211 187.881C117.924 189.941 120.8 190.941 120.459 192.14C120.124 193.335 118.397 193.33 119.717 199.407C119.937 200.403 120.134 201.319 120.314 202.162C121.247 204.342 122.632 206.176 123.581 207.363C124.686 208.773 126.032 213.141 128.863 215.601C129.005 215.727 129.152 215.862 129.301 216.003C128.658 215.498 132.664 217.405 135.814 218.151C137.207 218.526 138.458 218.775 139.377 218.792C142.497 218.835 141.943 220.65 144.021 222.348Z" fill="#C77D28"/>
<path d="M139.788 303.809C140.505 307.393 146.099 308.662 146.678 313.381C146.96 315.971 146.244 317.355 145.926 318.954C145.693 320.189 145.644 321.51 146.263 323.445C147.701 327.966 146.815 332.808 148.196 334.642C149.574 336.468 146.56 337.247 147.778 339.967C148.82 342.277 148.936 343.897 148.678 345.962L148.636 345.793C148.612 346.164 148.577 346.544 148.532 346.939C148.207 349.644 149.666 357.409 151.859 359.542C153.381 361.07 153.4 363.298 153.59 365.074L153.519 364.963C153.628 365.64 153.791 366.246 154.054 366.691C154.337 367.174 154.566 367.617 154.725 368.008C154.793 368.173 154.738 368.378 154.626 368.542C154.626 368.542 154.626 368.542 154.626 368.542C154.487 368.745 154.254 368.88 154.066 368.783C153.312 368.396 152.141 367.835 150.746 366.896C150.734 366.875 150.691 366.818 150.681 366.796C150.432 366.61 150.169 366.411 149.898 366.211C146.852 363.816 148.429 362.731 146.135 358.865C143.942 355.023 141.584 352.933 141.209 347.833C141.202 347.792 141.164 347.673 141.159 347.632C141.157 347.551 141.156 347.47 141.155 347.388C141.155 342.084 136.407 341.77 137.692 334.196C138.873 327.377 134.953 326.727 132.709 321.897C132.474 321.387 132.258 320.846 132.062 320.256C130.258 313.849 129.345 306.927 126.509 303.442C126.06 302.879 125.574 302.299 125.041 301.674C123.476 300.026 119.458 297.011 116.018 293.783C114.52 292.379 112.679 291.114 110.711 289.882C107.424 287.788 103.496 286.115 99.815 282.639C99.6134 282.436 99.4222 282.236 99.227 282.026C96.2369 278.658 91.5866 274.397 89.4611 268.59C88.6624 266.07 88.1863 263.826 87.9486 262.213C87.3387 257.552 87.294 256.513 85.8109 252.347C84.9904 249.946 84.8151 246.348 86.0527 243.404C86.7013 241.925 87.5505 242.365 87.9739 243.711C88.6217 245.699 88.4238 247.407 89.6399 248.294C92.0933 250.042 93.031 250.607 92.3585 253.37C91.7332 256.186 94.8802 256.538 95.0066 257.983C95.1887 259.292 93.6505 260.047 96.8026 264.907C97.028 265.2 97.3098 265.509 97.6664 265.835C101.269 268.912 105.244 270.961 107.609 272.527C108.124 272.831 108.627 273.111 109.11 273.366C110.855 274.314 114.147 277.184 117.694 279.84C118.752 280.637 119.827 281.383 120.9 282.002C124.755 284.333 130.744 288.756 135.422 293.904C136.086 294.657 136.682 295.299 137.215 295.804C140.472 298.977 138.934 300.119 139.788 303.809Z" fill="#C77D28"/>
<path d="M212.212 381.578C213.797 382.62 214.876 377.88 216.834 378.471C217.282 378.606 217.653 378.837 217.982 379.108L217.656 379.128C218.864 379.993 219.54 381.331 221.287 380.775C223.576 380.054 225.989 381.657 226.989 380.601C228.01 379.546 228.196 382.636 229.661 381.93C231.14 381.23 232.072 381.646 233.347 382.698C234.655 383.725 238.401 384.893 240.276 384.187C241.358 383.729 242.429 384.555 242.979 385.529C242.99 385.532 243.018 385.554 243.028 385.558C243.366 386.244 243.597 387.028 243.802 387.467C243.959 387.791 244.003 388.113 243.997 388.402C243.994 388.525 243.892 388.701 243.764 388.852C243.764 388.852 243.764 388.852 243.764 388.852C243.604 389.04 243.407 389.19 243.313 389.152C242.855 388.962 242.085 388.853 241.006 389.256C240.938 389.28 240.873 389.301 240.811 389.32L240.859 389.347C239.364 390.152 239.889 388.519 237.927 388.944C235.929 389.471 234.745 391.104 232.478 389.921C230.112 388.773 229.653 393.394 226.24 390.892C222.709 388.431 222.617 393.295 219.324 394.197C219.192 394.233 219.058 394.264 218.922 394.291C218.851 394.281 218.635 394.325 218.564 394.313C215.178 394.837 210.676 392.486 208.487 392.607C206.209 392.761 202.905 393.123 199.565 391.793C198.139 391.223 196.486 390.951 194.76 390.534C192.691 390.057 190.517 389.461 188.894 388.019C186.002 385.523 182.386 381.687 181.143 379.544C179.872 377.41 179.639 376.946 177.617 375.903C176.468 375.302 175.41 373.72 175.533 371.813C175.602 370.857 176.423 370.505 177.152 370.771C178.215 371.145 178.448 371.995 179.576 371.599C181.819 370.779 182.577 370.353 182.61 372.077C182.694 373.825 184.956 371.92 185.269 372.572C185.61 373.208 184.588 374.714 188.341 375.489C192.076 376.164 193.96 376.56 195.306 376.804C196.182 376.952 197.355 378.023 198.753 378.773C199.396 379.139 200.112 379.403 200.825 379.39C202.816 379.412 207.001 380.325 208.869 379.461C210.681 378.631 210.659 380.527 212.212 381.578Z" fill="#C77D28"/>
<path d="M322.188 429.967C325.08 430.919 327.071 426.115 330.519 426.563C330.877 426.609 331.205 426.675 331.51 426.757C334.16 427.464 335.097 429.359 338.601 428.554C342.493 427.654 346.618 428.923 348.261 427.702C349.894 426.481 350.443 429.541 352.856 428.542C354.965 427.662 356.413 427.701 358.299 428.176L358.057 428.222C358.332 428.266 358.612 428.32 358.9 428.381C361.26 428.895 368.127 428.141 370.078 426.237C371.462 424.932 373.242 425.147 374.978 425.182L374.906 425.214C375.593 425.236 376.254 425.22 376.763 425.107C377.29 424.991 377.758 424.964 378.148 424.996C378.314 425.009 378.47 425.149 378.571 425.319C378.571 425.319 378.571 425.319 378.571 425.32C378.697 425.531 378.737 425.789 378.602 425.905C378.033 426.389 377.319 427.198 376.395 428.364C376.381 428.368 376.344 428.389 376.33 428.393C376.192 428.565 376.047 428.75 375.899 428.945C373.739 431.598 372.761 429.959 369.315 431.806C365.924 433.564 364.084 435.674 359.737 435.709C359.677 435.715 359.501 435.763 359.44 435.765C359.317 435.756 359.191 435.746 359.062 435.734C354.462 435.276 354.013 440.015 347.394 438.118C340.838 436.165 340.66 441.043 334.339 442.174C333.761 442.275 333.167 442.348 332.56 442.396C326.54 442.894 319.514 440.948 316.05 441.197C312.228 441.485 307.043 442.063 301.576 441.203C301.542 441.198 301.508 441.192 301.473 441.187C296.11 440.354 289.344 441.564 283.277 439.585C281.895 439.128 280.378 438.612 278.753 437.967C273.822 436.082 267.644 432.541 265.723 429.605C265.245 428.989 264.87 428.442 264.545 427.952C263.166 425.781 262.388 424.921 259.927 422.973C258.224 421.615 256.436 419.083 255.998 416.268C255.803 414.847 256.721 414.674 257.733 415.402C259.241 416.464 259.878 417.84 261.3 417.83C264.145 417.788 265.223 417.74 265.873 420.277C266.501 422.628 268.964 421.731 269.892 422.488C269.956 422.537 270.009 422.597 270.05 422.671C270.638 423.45 269.222 425.479 275.012 426.516C277.276 426.802 279.376 426.904 281.18 427.036C283.77 427.145 285.83 427.169 287.381 427.159C289.889 427.149 295.166 429.052 299.469 428.716C300.196 428.66 301.051 428.638 301.987 428.633C306.479 428.625 312.926 428.835 315.804 428.048C319.264 427.107 319.312 429.004 322.188 429.967Z" fill="#C77D28"/>
<path d="M481.275 272.244C481.145 275.347 486.311 276.156 486.71 279.731C487.104 283.281 484.867 284.547 486.599 288.139C486.738 288.425 486.864 288.713 486.976 288.995C488.153 292.005 488.37 295.219 489.955 295.892C491.626 296.536 489.185 298.486 491.242 299.921C491.85 300.334 492.348 300.746 492.765 301.188L492.407 300.824C493.429 301.656 494.059 302.697 494.822 304.18C495.855 306.311 501.034 310.869 503.798 311.104C504.647 311.186 505.35 311.554 505.957 312.064L505.843 311.997C507.139 313.019 507.984 314.584 509.022 315.132C509.467 315.381 509.84 315.645 510.128 315.906C510.25 316.017 510.291 316.222 510.27 316.419C510.27 316.419 510.27 316.419 510.27 316.419C510.244 316.664 510.12 316.895 509.938 316.905C509.066 316.954 507.662 317.156 505.733 317.293C504.493 317.388 503.758 317.163 503.178 316.84C503.157 316.825 503.086 316.791 503.066 316.775C502.063 316.141 501.53 315.124 499.124 314.236C495.46 312.853 492.5 312.954 489.451 309.182C488.605 308.113 487.711 307.545 486.759 307.106C486.69 307.026 486.451 306.819 486.392 306.732C484.338 305.485 481.241 305.086 480.14 299.467C479.526 295.445 478.366 294.013 476.682 292.384C475.251 291.068 473.541 289.761 472.377 287.007C470.584 282.759 470.263 277.245 469.641 273.28C469.401 271.772 469.136 270.485 468.759 269.552C467.565 266.651 465.809 262.689 464.479 259.632C464.18 258.999 463.895 258.36 463.627 257.723C462.446 254.823 460.188 252.506 458.946 252.155C456.878 251.132 455.137 250.208 453.607 249.174C451.585 247.77 448.806 246.53 445.792 245.796C442.59 245.062 439.66 244.366 437.794 243.825C433.983 242.722 433.047 242.472 429.33 242.936C427.187 243.203 424.282 242.789 421.832 241.471C420.611 240.81 420.903 239.944 422.18 239.563C424.03 239.006 425.54 239.463 426.513 238.403C428.478 236.284 429.303 235.474 431.658 236.825C433.996 238.175 435.23 235.333 436.608 235.714C437.987 236.098 437.906 237.791 445.032 236.751C445.41 236.696 445.783 236.643 446.15 236.593C453.444 235.721 458.175 237.407 460.892 238.31C462.109 238.725 463.628 239.693 465.128 240.75C468.825 243.063 471.01 246.765 472.813 248.997C473.758 250.172 474.744 251.736 475.706 253.384C478.402 258.206 479.766 263.089 481.22 265.348C482.372 267.196 482.237 268.162 481.907 269.257C481.671 270.063 481.327 270.933 481.275 272.244Z" fill="#C77D28"/>
<path d="M404.479 281.832C404.445 282.828 404.748 283.714 405.214 284.447C406.568 286.456 409.505 287.489 410.135 290.026C411.105 293.434 409.3 295.37 412.503 298.598C413.787 299.83 414.902 301.22 415.974 302.524C417.33 304.246 418.928 305.78 420.268 305.901C422.477 306.061 421.107 308.88 424.141 309.661C427.104 310.371 428.624 311.418 430.729 313.312L430.554 313.248C430.594 313.28 430.634 313.313 430.674 313.346C432.203 314.684 436.893 316.478 440.674 316.726C442.078 316.839 443.326 316.776 444.184 316.513C447.299 315.549 450.683 317.812 452.831 318.362C453.492 318.534 454.016 318.759 454.414 318.99C454.584 319.087 454.662 319.289 454.659 319.486C454.659 319.487 454.659 319.487 454.659 319.487C454.657 319.733 454.53 319.974 454.309 320.002C453.236 320.139 451.637 320.511 449.696 321.331C446.046 322.825 445.763 321.023 440.843 321.354C440.584 321.368 440.33 321.384 440.081 321.402C435.96 321.663 432.722 322.461 428.177 320.379C428.131 320.358 427.983 320.314 427.937 320.291C427.559 320.081 427.173 319.848 426.777 319.589C421.998 316.257 418.468 320.199 412.377 312.921C411.222 311.41 410.238 310.254 409.296 309.304C406.057 305.853 402.113 306.593 397.717 300.42C395.205 296.738 393.685 291.775 393.196 287.214C392.868 282.988 392.492 279.343 391.638 277.078C390.419 273.838 388.578 269.842 386.866 265.362C386.331 263.963 385.817 262.513 385.348 261.028C383.891 256.446 380.815 251.223 378.447 247.175C378.079 246.583 377.772 246.113 376.746 245.217C375.101 243.739 371.292 242.035 367.847 239.946C363.589 237.457 359.221 233.954 357.744 230.804C357.081 229.525 356.737 228.389 356.525 227.399C356.029 224.587 355.598 223.113 354.597 219.491C353.865 216.76 354.025 212.678 355.844 209.654C356.839 208.153 357.514 208.897 357.671 210.34C357.947 212.536 357.576 214.353 358.698 215.436C360.989 217.55 361.867 218.13 361.129 220.968C360.602 223.256 362.53 224.027 363.421 224.865C363.617 224.968 363.744 225.072 363.754 225.252C363.791 225.672 363.434 226.117 363.719 226.939C364.029 227.733 365.02 229.041 368.831 230.197C369.801 230.49 370.761 230.751 371.697 231.005C377.608 232.472 382.765 233.326 386.734 236.609C387.719 237.397 388.842 238.655 389.726 240.231C391.843 244.179 393.228 249.195 395.379 253.031C396.423 254.901 397.635 257.599 398.844 260.445C400.86 265.151 402.745 270.385 404.147 273.017C406.4 277.289 404.574 277.891 404.479 281.832Z" fill="#C77D28"/>
<path d="M245.104 101.831C245.137 101.864 245.17 101.896 245.204 101.926C247.101 103.602 250.518 100.046 253.089 101.706C255.73 103.405 255.288 105.892 258.816 106.645C260.618 107.034 262.221 107.997 263.606 108.83C264.959 109.641 266.069 110.319 267.021 110.208C268.964 109.994 267.769 112.846 270.128 113.288C272.501 113.758 273.561 114.83 274.76 116.726C275.879 118.425 279.722 121.968 282.22 122.762L282.125 122.701C282.387 122.769 282.636 122.809 282.867 122.819C284.578 122.876 285.846 124.552 286.515 126.248C286.524 126.255 286.548 126.284 286.557 126.291C286.775 126.986 286.907 127.606 287.096 128.057C287.286 128.513 287.362 128.931 287.375 129.29C287.381 129.443 287.266 129.615 287.116 129.745C287.116 129.745 287.116 129.745 287.116 129.745C286.93 129.907 286.692 130.002 286.569 129.907C286.05 129.515 285.191 129.001 284.003 128.719L284.042 128.758C283.876 128.734 283.705 128.719 283.528 128.715C281.383 128.77 281.58 127.647 279.691 126.659C279.672 126.642 279.604 126.606 279.585 126.589C279.264 126.403 278.873 126.215 278.408 126.045C275.212 124.878 272.769 125.261 270.187 122.436C267.478 119.614 264.696 123.306 261.173 118.814C260.747 118.291 260.332 117.89 259.919 117.584C256.743 115.275 254.416 118.515 249.785 117.377C246.753 116.633 243.6 114.705 240.795 112.888C238.743 111.553 236.912 110.288 235.487 109.714C233.438 108.903 230.778 107.782 228.289 106.17C226.856 105.252 225.404 104.197 224.024 102.943C220.576 99.7261 214.994 97.8136 211.325 92.2677C211.196 92.0641 211.072 91.8556 210.962 91.6544C207.906 85.8623 206.426 78.4909 206.117 74.8589C206.113 74.814 206.109 74.7695 206.106 74.7253C205.844 70.9964 206.028 70.2311 204.921 67.0755C204.307 65.2457 204.325 62.6384 205.328 60.3592C205.833 59.2112 206.727 59.3638 207.262 60.4008C208.044 61.9156 207.792 63.2598 208.976 63.9294C211.346 65.2652 212.247 65.7785 211.314 67.885C210.407 70.037 213.437 70.2173 213.37 71.1499C213.353 71.4963 213.139 71.7799 213.004 72.1904C212.823 73.0579 212.864 74.5251 215.18 77.5227C218.006 81.097 219.975 83.2087 221.067 84.0674C221.382 84.319 221.707 84.5668 222.02 84.7904C223.374 85.8034 225.932 89.8001 229.248 91.481C230.864 92.3147 233.142 93.8631 235.44 95.3109C237.556 96.6559 239.638 97.6195 241.101 97.8207C243.985 98.1905 243.257 99.9228 245.104 101.831Z" fill="#C77D28"/>
<path d="M335.815 202.912C334.172 201.586 332.103 202.673 329.948 203.023C328.83 203.21 327.718 203.199 326.717 202.544C323.812 200.641 324.299 198.142 320.506 197.184C316.713 196.224 313.794 193.169 311.815 193.462C309.835 193.754 310.847 190.817 308.331 190.529C307.592 190.447 306.947 190.3 306.396 190.102L306.63 190.189C305.295 189.799 304.331 189.05 303.143 187.934C301.493 186.317 295.325 183.726 293.018 184.802C292.062 185.221 291.17 185.102 290.702 184.879L290.823 184.851C289.597 184.721 288.304 184.404 287.397 184.61C286.915 184.712 286.481 184.749 286.107 184.741C285.95 184.737 285.781 184.613 285.663 184.455C285.663 184.455 285.663 184.454 285.663 184.454C285.515 184.257 285.447 184.005 285.571 183.878C286.176 183.263 287.002 182.237 288.275 180.832C288.712 180.352 289.133 180.037 289.5 179.829C289.524 179.825 289.596 179.802 289.621 179.8C292.054 178.968 292.715 180.21 295.944 180.049C299.855 179.975 302.548 178.992 306.39 181.361C307.47 182.034 308.395 182.195 309.34 182.192C309.386 182.214 309.535 182.256 309.58 182.281C311.926 182.391 314.245 181.326 317.519 184.721C322.07 189.44 324.506 185.216 330.263 186.887C332.017 187.393 333.8 188.244 335.486 189.184C336.642 189.825 337.762 190.513 338.778 191.144C339.285 191.458 339.777 191.762 340.147 192.002C340.322 192.12 340.497 192.226 340.451 192.267C340.406 192.288 340.368 192.283 339.864 192.257C339.56 192.267 339.251 192.168 338.001 192.445C337.367 192.616 336.357 192.917 335.208 193.972C334.063 195.012 333.474 196.534 333.343 197.344C333.274 198.127 333.406 198.139 333.441 198.129C333.489 198.094 333.509 197.936 333.506 197.763C333.499 197.404 333.408 196.97 333.266 196.604C333.121 196.229 332.946 195.816 332.748 195.373C331.247 191.793 329.911 187.742 329.347 183.358C328.925 180.022 327.453 176.495 326.317 172.934C325.72 171.063 325.219 169.218 324.998 167.372C324.715 164.978 324.237 162.205 323.553 159.614C322.558 156.119 321.699 152.812 321.289 150.744C320.551 146.989 320.365 146.09 318.322 143.109C317.155 141.4 316.247 138.672 316.46 135.981C316.572 134.607 317.497 134.576 318.333 135.484C319.579 136.844 319.8 138.306 321.166 138.676C323.899 139.408 324.97 139.731 324.783 142.321C324.602 144.917 327.67 144.644 327.941 145.975C328.218 147.302 326.654 148.052 330.811 153.487C331.289 154.108 331.742 154.702 332.165 155.259C335.685 160.19 336.924 163.433 337.949 165.629C338.351 166.522 338.633 167.842 338.882 169.332C339.327 171.997 339.691 175.252 340.701 177.794C342.076 181.211 343.419 188.095 345.004 191.09C345.303 191.723 345.587 192.305 345.858 192.809C347.048 195.28 347.092 196.545 345.926 199.865C345.756 200.795 344.935 202.592 343.599 203.582C342.288 204.586 341.247 204.76 340.616 204.861C339.359 204.998 338.94 204.824 338.567 204.738C337.862 204.525 337.594 204.313 337.292 204.11C336.738 203.706 336.325 203.311 335.815 202.912Z" fill="#C77D28"/>
<path d="M405.762 174.4C405.966 174.65 406.206 174.821 406.475 174.931C406.382 174.864 406.55 174.862 406.722 174.804C406.908 174.753 407.128 174.669 407.371 174.564C407.856 174.355 408.4 174.054 408.959 173.775C410.082 173.219 411.265 172.754 412.429 173.336C415.098 174.655 414.999 177.186 418.455 177.384C420.427 177.494 422.248 178.317 423.775 178.882C424.812 179.284 425.665 179.489 426.234 179.117C427.456 178.214 427.383 181.376 428.965 180.557C429.387 180.305 429.777 180.12 430.213 179.996L428.842 180.568C429.843 179.836 430.929 179.606 432.436 179.448C434.561 179.241 439.824 176.568 440.869 174.321C441.439 173.157 442.456 172.717 443.925 172.403C443.935 172.395 443.971 172.38 443.981 172.373C445.183 172.253 446.35 172.45 447.113 172.41C447.605 172.384 448.021 172.458 448.36 172.571C448.502 172.62 448.624 172.788 448.693 172.974C448.693 172.974 448.694 172.974 448.694 172.974C448.779 173.205 448.787 173.46 448.659 173.542C448.048 173.936 447.161 174.704 446.489 176.022C446.375 176.247 446.267 176.439 446.16 176.605L446.216 176.575C445.528 178.142 444.177 177.352 442.267 179.644C440.131 182.198 439.512 184.748 435.677 186.005C434.582 186.361 433.944 186.963 433.442 187.667C433.146 187.803 432.354 188.233 432.029 188.257C430.233 189.522 426.874 191.671 422.915 188.964C422.491 188.676 422.108 188.434 421.743 188.233C417.823 185.93 416.109 189.83 411.075 189.286C409.634 189.126 408.135 188.709 406.611 188.136C405.843 187.847 405.087 187.524 404.266 187.146C403.389 186.725 402.82 186.491 401.114 185.525C399.035 183.885 396.914 182.159 395.127 180.954C394.557 180.572 393.93 180.126 393.243 179.517C391.648 177.91 391.41 177.377 390.77 176.529C390.224 175.756 389.724 174.996 389.242 174.214C388.282 172.653 387.405 171.013 386.674 169.235C385.209 165.657 381.905 162.379 379.843 158.639C379.482 157.985 379.164 157.323 378.901 156.647C377.233 152.298 374.949 147.353 372.679 145.185C372.424 144.934 372.199 144.704 371.988 144.488C369.624 142.057 369.009 141.466 365.969 140.548C364.214 140.04 362.217 138.64 360.781 136.858C360.424 136.42 360.272 136.046 360.366 135.702C360.468 135.358 360.976 135.113 361.607 135.109C363.45 135.11 364.442 136.07 365.674 135.442C368.127 134.208 369.188 133.809 370.45 135.91C371.691 138.009 373.921 135.952 374.832 136.838C375.342 137.341 375.289 138.041 376.26 138.899C377.147 139.652 378.76 140.56 381.394 142.345C387.314 146.685 389.066 149.47 390.735 151.212C390.757 151.237 390.778 151.262 390.8 151.287C392.378 153.147 393.788 157.995 396.157 160.954C397.203 162.25 398.439 164.285 399.656 166.312C400.262 167.319 400.871 168.331 401.438 169.184C401.718 169.605 401.99 169.987 402.214 170.255C402.326 170.389 402.424 170.49 402.478 170.523C402.522 170.548 402.562 170.524 402.314 170.234C402.45 170.264 402.687 170.338 402.933 170.369C404.914 170.664 404.204 172.386 405.762 174.4Z" fill="#C77D28"/>
<path d="M199.535 131.024C200.374 132.695 203.294 128.875 204.534 130.055C205.299 130.742 205.51 131.824 205.949 132.667L205.383 132.512C205.862 133.14 206.432 133.608 207.545 133.63C210.135 133.681 212.075 136.056 213.47 135.448C214.897 134.851 213.983 137.803 215.711 137.728C217.469 137.681 218.269 138.48 219.089 140.006C219.979 141.502 223.019 144.401 224.959 144.445C225.054 144.445 225.144 144.451 225.23 144.463C225.276 144.486 225.379 144.604 225.422 144.632C227.117 145.044 226.791 147.557 227.101 148.576C227.203 148.912 227.216 149.239 227.183 149.531C227.169 149.655 227.05 149.82 226.908 149.957C226.908 149.957 226.908 149.957 226.908 149.957C226.73 150.128 226.516 150.254 226.423 150.202C225.97 149.949 225.167 149.687 223.921 149.686C222.293 149.692 222.405 149.008 221.874 148.295L222.054 148.453C221.81 148.183 221.445 147.919 220.808 147.772C218.624 147.28 216.891 148.227 215.323 146.233C213.574 144.23 211.503 148.35 209.198 144.846C206.882 141.652 205.246 145.201 202.45 145.768C202.311 145.705 201.853 145.644 201.722 145.568C201.4 145.582 201.061 145.563 200.703 145.5C196.422 144.858 192.385 139.558 190.455 138.366C189.509 137.83 188.425 137.234 187.33 136.508C185.993 135.629 184.623 134.569 183.465 133.187C181.407 130.731 177.402 129.582 175.44 126.595C174.959 125.861 174.415 125.059 173.867 124.255C172.258 121.832 170.283 119.34 169.252 117.879C167.884 115.944 167.479 115.474 165.342 115.042C164.11 114.8 162.77 113.825 161.928 112.123C161.503 111.267 161.977 110.516 162.83 110.422C164.081 110.287 164.733 111.035 165.713 110.29C167.679 108.808 168.559 108.303 169.294 110.119C169.997 111.928 172.005 109.76 172.616 110.499C173.206 111.259 172.336 112.598 176.711 113.964C178.266 114.471 179.536 114.985 180.592 115.462C182.447 116.285 183.61 116.937 184.542 117.413C185.986 118.151 187.639 121.359 189.961 122.532C191.435 123.275 193.483 125.005 195.298 126.259C196.29 126.942 197.214 127.439 197.931 127.546C199.876 127.809 198.797 129.371 199.535 131.024Z" fill="#C77D28"/>
<path d="M239.46 332.568C242.91 334.744 246.72 330.848 250.818 331.958C251.143 332.042 251.463 332.133 251.775 332.232C256.904 333.762 257.343 336.053 263.019 337.553C265.681 338.325 268.078 339.683 270.101 341.007C272.785 342.748 274.818 344.505 276.442 344.991C279.349 345.936 277.654 348.46 280.926 350.683C283.624 352.631 284.949 354.582 285.861 357.263C285.874 357.281 285.905 357.341 285.917 357.36C286.056 357.885 286.183 358.442 286.3 359.028C286.758 361.237 288.554 365.988 290.293 369.828C291.177 371.764 292.066 373.437 292.91 374.365C295.408 377.138 295.03 381.583 295.651 383.978C295.836 384.718 295.909 385.345 295.913 385.85C295.915 386.064 295.778 386.236 295.602 386.326C295.602 386.326 295.602 386.326 295.602 386.326C295.383 386.439 295.103 386.425 294.962 386.217C294.279 385.208 293.123 383.764 291.418 382.173C288.248 379.187 289.788 377.994 286.92 373.456C286.55 372.876 286.179 372.339 285.81 371.834C283.292 368.422 280.916 366.224 279.188 361.16L279.253 361.272C279.25 361.263 279.247 361.254 279.244 361.245C276.938 356.098 272.965 358.28 268.248 351.787C267.363 350.688 266.467 349.907 265.6 349.355C261.164 346.686 258.012 348.898 252.323 348.126C251.612 348.055 250.904 347.978 250.255 347.916C240.777 347.238 231.498 341.471 226.943 339.598C226.585 339.455 226.214 339.306 225.832 339.151C220.738 337.079 214.408 334.228 208.471 329.937C206.752 328.691 204.85 327.488 202.856 326.226C197.661 322.988 191.701 318.979 187.812 313.998C187.681 313.834 187.553 313.67 187.427 313.505C184.806 310.123 182.148 305.901 179.739 302.991C176.641 299.409 173.441 296.604 171.247 294.948C168.554 292.901 166.969 292.026 164.894 291.359C163.722 290.994 162.384 290.679 160.562 290.325C157.585 289.746 153.729 288.216 150.719 286.061C149.2 284.996 149.785 284.238 151.64 284.329C154.33 284.469 156.257 285.489 157.866 284.84C161.075 283.546 162.44 283.095 165.291 285.332C165.737 285.681 166.159 285.918 166.586 286.08C169.006 287.007 171.175 285.718 172.796 286.748C174.578 288.154 174.233 288.875 183.648 294.36C184.446 294.856 185.197 295.347 185.904 295.824C191.843 300.285 194.384 303.126 196.768 305.02C197.579 305.705 198.291 306.289 198.943 306.801C201.283 308.693 205.04 313.187 209.596 316.128C210.323 316.605 211.061 317.044 211.799 317.427C216.678 320.033 226.205 325.776 231.271 327.293C231.629 327.406 231.96 327.498 232.262 327.57C236.9 328.612 236.158 330.34 239.46 332.568Z" fill="#C77D28"/>
<path d="M177.927 290.855C178.27 290.214 177.395 289.921 176.402 289.377C176.297 289.206 176.403 288.576 176.327 288.391C175.324 287.946 174.177 287.465 174.536 286.892C175.217 285.81 177.713 285.707 177.186 284.467C176.659 283.216 178.418 282.058 177.422 281.464C176.426 280.86 179.522 280.967 178.88 280.157C178.24 279.34 178.677 278.884 179.734 278.285C180.71 277.718 181.676 276.018 180.949 275.008L180.944 275.046C180.883 274.974 180.81 274.908 180.726 274.846C179.578 274.037 181.775 273.498 182.313 273.01C182.481 272.866 182.705 272.756 182.936 272.675C183.034 272.64 183.235 272.633 183.432 272.645C183.432 272.645 183.433 272.645 183.433 272.645C183.678 272.659 183.919 272.701 183.947 272.755C184.083 273.015 184.46 273.406 185.314 273.942C186.635 274.789 185.572 274.9 185.593 275.621C185.589 275.628 185.592 275.655 185.588 275.662C185.592 275.786 185.639 275.941 185.76 276.129C186.483 277.269 188.132 278.019 186.934 279.174C185.742 280.361 190.341 280.905 187.639 282.536C184.944 284.218 189.776 284.591 190.382 286.336C190.616 287.009 190.367 287.739 189.987 288.452L189.894 287.242C189.272 287.348 188.689 288.749 189.007 289.163C189.528 289.916 190.559 290.879 190.607 292.46C190.662 294.062 192.939 294.978 192.715 296.991C192.49 299.01 192.392 301.835 192.091 303.289C191.79 304.744 191.733 305.09 192.776 305.76C193.377 306.146 193.513 307.054 192.776 308.297C192.402 308.92 191.598 309.268 191.054 309.148C190.258 308.968 190.403 308.387 189.312 308.668C187.135 309.238 186.288 309.434 187.059 308.204C187.831 306.976 185.144 308.077 185.236 307.555C185.327 307.031 186.823 306.227 184.665 305.007C182.505 303.779 181.658 302.887 181 302.31C180.339 301.727 180.872 299.539 179.797 298.547C178.712 297.564 177.98 294.768 176.715 293.839C175.439 292.902 177.217 292.217 177.927 290.855Z" fill="#C77D28"/>
<path d="M281.325 297.465C283.021 297.675 283.204 294.887 284.787 293.29C286.151 292.499 287.108 292.226 288.075 292.273C291.682 292.652 291.783 295.244 294.883 294.761C296.647 294.505 298.329 295.053 299.684 295.37C299.831 295.355 300.259 295.466 300.406 295.473C301.464 295.869 302.3 296.146 302.977 295.887C304.606 295.281 303.86 298.288 305.849 298.197C307.845 298.12 308.788 298.878 309.962 300.36C311.028 301.698 314.621 303.858 316.84 303.856L316.804 303.843C317.036 303.837 317.25 303.806 317.446 303.747C319.437 303.121 320.799 305.792 321.761 306.753C322.066 307.049 322.259 307.371 322.378 307.672C322.428 307.799 322.387 308.001 322.305 308.181C322.305 308.181 322.305 308.181 322.305 308.181C322.203 308.405 322.039 308.597 321.917 308.576C321.315 308.471 320.353 308.507 319.102 309.022C317.094 309.846 317.044 308.641 315.278 308.222C315.27 308.218 315.244 308.212 315.236 308.207C314.949 308.134 314.617 308.083 314.216 308.065C311.408 307.945 309.327 308.993 306.783 306.924C304.215 304.884 302.113 308.976 299.017 305.453C298.793 305.208 298.575 305.006 298.369 304.843L299.031 304.937C295.594 303.21 294.449 307.325 291.079 307.94C290.634 308.035 290.201 308.085 289.89 308.101C289.737 308.108 289.612 308.107 289.569 308.087C289.53 308.064 289.557 308.036 289.844 307.894C287.119 308.363 282.608 308.747 280.283 309.446C278.417 310 275.906 310.961 271.995 310.244C270.55 309.965 268.958 309.56 267.301 308.841C263.553 307.317 256.806 306.122 253.692 301.505C252.961 300.457 252.247 299.291 251.612 298.089C249.958 294.706 248.21 291.007 247.48 288.915C246.507 286.14 246.277 285.505 244.218 283.694C243.057 282.645 241.966 280.624 242.322 278.277C242.588 277.101 243.54 277.281 244.169 277.723C245.166 278.449 245.412 279.521 246.663 279.444C249.184 279.279 250.119 279.147 250.076 281.215C250.042 283.279 252.813 282.13 253.14 283.081C253.473 284.021 252.108 285.099 256.278 288.078C257.795 289.153 259.02 290.06 260.064 290.876C261.605 291.961 262.591 292.528 263.38 292.905C264.534 293.487 266.193 296.171 268.935 296.428C270.288 296.573 272.457 297.099 274.812 297.55C274.931 297.584 276.338 297.341 277.013 296.707C278.519 295.381 279.161 297.14 281.325 297.465Z" fill="#C77D28"/>
<path d="M327.107 349.259C326.591 350.75 331.264 349.722 331.183 351.15C331.097 352.543 328.953 353.872 330.07 354.739C330.553 355.088 330.628 355.553 330.638 355.897L330.421 355.641C330.763 356.405 331.014 357.087 331.703 356.992C332.935 356.814 330.715 358.979 331.912 359.248C333.103 359.507 333.224 360.217 333.119 361.548C332.987 362.868 334.413 365.452 335.875 365.002C336.204 364.898 336.41 364.922 336.51 365.007L336.265 364.858C336.56 365.084 336.94 366.668 337.291 367.26C337.439 367.5 337.511 367.777 337.53 368.039C337.538 368.151 337.47 368.341 337.379 368.517C337.379 368.517 337.379 368.517 337.379 368.517C337.266 368.736 337.122 368.934 337.049 368.932C336.682 368.916 336.104 369.099 335.197 369.697C334.407 370.202 333.978 370.039 333.622 369.716C333.584 369.677 333.426 369.617 333.392 369.575C333.018 369.153 332.847 368.61 331.859 368.359C330.051 367.891 328.138 368.397 327.609 366.279C327.123 364.185 323.444 367.036 323.598 363.328C323.628 362.725 323.554 362.303 323.397 362.011C323.373 361.96 323.238 361.851 323.217 361.799C322.241 359.82 318.947 360.945 317.313 358.873C315.454 356.458 316.734 352.525 315.922 351.237C315.122 349.95 313.816 348.385 313.511 346.258C313.221 344.274 311.018 342.848 310.601 340.691C310.559 340.496 310.532 340.296 310.521 340.092C310.381 337.481 309.982 333.868 310.033 332.043C310.089 330.225 310.08 329.781 308.808 328.807C308.075 328.246 307.747 327.094 308.263 325.588C308.521 324.834 309.306 324.435 309.942 324.654C310.866 324.968 310.843 325.712 311.977 325.473C314.245 325.003 315.14 324.865 314.559 326.368C313.971 327.862 316.69 326.797 316.694 327.462C316.698 328.132 315.227 328.965 317.809 330.84C320.051 332.478 321.146 333.631 321.926 334.437C322.048 334.567 322.162 334.688 322.271 334.801C323.113 335.677 322.914 338.479 324.199 339.916C325.509 341.359 326.606 344.991 327.983 345.995C329.373 347.01 327.622 347.764 327.107 349.259Z" fill="#C77D28"/>
<path d="M317.725 370.092C317.176 368.903 315.739 373.42 314.948 372.603C314.145 371.785 314.433 369.305 313.252 369.667C312.066 370.03 311.253 368.149 310.562 369.06C310.538 369.093 310.514 369.12 310.493 369.143C309.897 369.756 310.368 366.937 309.562 367.453C308.719 367.984 308.37 367.496 307.977 366.381C307.582 365.267 305.944 364.016 305.034 365.086C304.131 366.156 303.854 363.91 303.488 363.326C303.378 363.145 303.306 362.911 303.26 362.674C303.24 362.574 303.258 362.373 303.291 362.178C303.291 362.178 303.291 362.178 303.291 362.178C303.333 361.935 303.401 361.701 303.454 361.679C303.711 361.571 304.125 361.241 304.714 360.447C305.821 358.972 305.537 360.792 306.733 360.179C307.934 359.568 308.899 358.035 309.809 359.362C310.614 360.516 311.609 357.279 312.549 358.3C312.69 358.454 312.836 358.704 312.985 359.079C314.155 361.958 315.175 357.217 316.974 356.881C318.791 356.543 320.542 359.591 321.66 359.61C322.451 359.621 323.481 359.52 324.563 359.846C324.663 359.926 325.078 359.949 325.169 360.039C325.567 360.204 325.931 360.429 326.286 360.767C327.435 361.88 329.705 361.017 330.813 362.666C331.919 364.312 333.511 366.482 334.132 367.761C334.755 369.039 334.916 369.338 336.053 369.14C336.707 369.022 337.27 369.584 337.478 370.925C337.596 371.591 337.481 372.469 336.92 372.762C336.165 373.187 335.898 372.648 335.272 373.584C334.008 375.445 333.474 376.137 333.302 374.712C333.14 373.289 331.811 375.866 331.574 375.417C331.338 374.969 331.961 373.385 329.697 373.907C327.433 374.431 326.351 374.373 325.564 374.408C324.78 374.444 323.902 372.528 322.612 372.613C322.056 372.649 321.363 372.432 320.641 372.207L321.24 372.397C320.426 372.237 319.513 372.092 318.92 372.473C317.879 373.145 318.261 371.281 317.725 370.092Z" fill="#C77D28"/>
<path d="M400.791 369.006C401.037 370.551 404.763 367.531 405.458 369.026C406.117 370.504 404.568 372.466 406.112 373.163C407.671 373.883 407.554 376.225 408.783 376.04C410.026 375.87 407.799 378.022 408.976 378.305C410.161 378.605 410.274 379.363 410.055 380.699C409.932 381.466 410.184 382.586 410.683 383.691C410.965 384.386 411.436 384.935 412.103 385.022C413.635 385.222 412.279 387.192 412.145 387.994C412.103 388.243 411.99 388.485 411.851 388.699C411.792 388.79 411.629 388.909 411.456 389.006C411.456 389.006 411.456 389.006 411.456 389.006C411.241 389.126 411.013 389.213 410.954 389.172C410.668 388.972 410.091 388.757 409.04 388.71C407.082 388.623 408.63 387.622 407.2 386.825C406.822 386.615 406.41 386.467 406.013 386.329C405.128 386.346 404.192 386.26 404.155 384.929C404.019 383.044 400.366 385.884 400.825 382.552C401.177 379.154 397.563 382.392 395.649 381.498C394.184 380.819 393.721 378.586 393.051 377.33L394.656 378.191C394.296 377.852 393.953 377.609 393.632 377.553C392.3 377.317 390.381 377.275 388.639 375.997C386.935 374.726 383.8 375.324 381.827 373.056C379.89 370.935 377.354 367.02 377.306 364.826C377.181 362.754 377.338 362.425 376.455 360.964C376.438 360.937 376.421 360.909 376.404 360.88C375.924 360.126 376.06 358.822 377.287 357.781C377.916 357.266 378.782 357.473 379.207 357.841C379.836 358.398 379.497 358.955 380.62 359.125C382.149 359.344 383.036 359.419 383.095 359.765C383.109 359.848 382.938 359.966 382.581 360.196C382.025 360.572 382.48 360.635 383.001 360.527C383.527 360.431 384.121 360.191 384.008 360.331C383.799 360.574 382.29 361.656 384.302 361.781C386.29 361.744 387.425 361.841 388.256 361.9C389.046 361.932 390.168 363.978 391.813 363.99C393.397 363.994 396.365 365.493 397.981 365.141C398.746 364.969 399.01 365.293 399.145 365.825C399.551 365.837 400.479 366.62 400.865 366.747C400.867 367.369 400.643 368.184 400.791 369.006Z" fill="#C77D28"/>
<path d="M417.779 430.13C418.695 431.391 420.428 426.931 421.654 427.826C422.891 428.72 422.674 431.214 424.346 430.928C425.056 430.806 425.698 431.085 426.273 431.379L425.903 431.332C426.681 431.67 427.344 432.038 427.781 431.48C428.531 430.507 428.399 433.607 429.424 432.977C430.433 432.343 430.986 432.77 431.807 433.795C432.599 434.841 435.4 435.636 435.999 434.246C436.188 433.802 436.393 433.717 436.562 433.821L436.506 433.839C436.846 433.886 437.093 434.16 437.411 434.39C437.724 434.622 438.11 434.795 438.37 434.816C438.611 434.837 438.869 434.91 439.108 435.007C439.208 435.049 439.355 435.188 439.481 435.341C439.481 435.341 439.481 435.341 439.481 435.341C439.637 435.531 439.758 435.745 439.721 435.815C439.52 436.158 439.415 436.793 439.014 437.981C438.763 438.679 438.461 438.96 438.231 439.061C438.219 439.061 438.187 439.078 438.175 439.078C437.423 439.343 436.857 438.769 435.739 439.471C434.119 440.466 433.063 442.178 431.167 441.029C429.349 439.86 428.619 444.462 426.167 441.64C425.742 441.137 425.377 440.873 425.038 440.782C424.981 440.759 424.789 440.771 424.733 440.743C423.261 440.221 422.166 443.452 419.993 443.612C417.343 443.809 414.605 440.562 413.023 440.445C411.436 440.333 409.188 440.41 407.063 439.146C405.343 438.102 402.781 438.371 400.339 436.858C399.895 436.567 399.494 436.218 399.165 435.798C397.317 433.472 395.269 430.278 394.572 428.549C393.87 426.821 393.722 426.429 392.164 425.936C391.269 425.649 390.529 424.616 390.595 423.013C390.63 422.208 391.3 421.636 391.947 421.648C392.889 421.661 393.079 422.353 394.062 421.752C396.022 420.545 396.759 420.068 396.681 421.627C396.618 423.193 398.722 421.168 398.929 421.741C399.14 422.304 398.134 423.726 401.065 424.163C403.973 424.551 405.263 424.86 406.174 424.99C406.25 425 406.326 425.024 406.401 425.059C406.92 425.306 408.016 427.026 409.532 426.967C411.108 426.916 414.222 428.159 415.75 427.579C417.258 427.004 416.878 428.868 417.779 430.13Z" fill="#C77D28"/>
<path d="M109.365 234.334C110.581 236.998 115.72 230.693 117.714 232.888C117.904 233.095 118.065 233.318 118.204 233.552C119.491 235.784 118.663 239.126 121.701 239.524C125.028 239.946 126.996 243.864 129.058 242.85C131.126 241.838 129.247 246.712 131.728 246.51C134.233 246.335 135.332 247.553 136.529 250.164C136.567 250.247 136.609 250.333 136.654 250.421C136.754 250.451 136.994 250.667 137.091 250.707C138.05 253.302 141.357 258.078 144.141 258.034C145.693 258.005 146.145 259.117 146.331 260.413L146.05 260.18C146.294 261.274 146.651 262.869 146.846 263.633C147.015 264.161 147.01 264.68 146.929 265.142C146.893 265.337 146.687 265.611 146.447 265.843C146.447 265.843 146.446 265.843 146.446 265.843C146.146 266.131 145.796 266.356 145.661 266.292C144.992 265.972 143.811 265.756 142.06 266.353C141.793 266.425 141.54 266.465 141.301 266.474C141.255 266.418 141.063 266.303 141.023 266.243C138.325 266.219 139.715 264.001 136.751 262.993C133.879 262.034 131.252 262.953 129.719 260.823L130.36 261.241C130.222 261.047 130.052 260.786 129.873 260.463C127.843 257.382 123.948 264.27 120.861 258.186C117.687 252.058 113.989 259.39 108.443 258.056C107.91 257.924 107.392 257.741 106.876 257.508C102.152 255.408 98.3787 249.312 95.5174 247.971C92.4768 246.564 87.9562 244.815 84.3932 240.333C84.2565 240.15 84.1268 239.968 83.9928 239.775C81.7192 236.652 75.2596 231.343 74.1483 225.319C73.9833 224.474 73.907 223.606 73.9615 222.71C74.308 217.393 74.3161 209.726 75.7635 205.189C76.0877 204.193 76.4333 203.278 76.8816 202.397C78.1286 200.716 78.4249 199.756 78.4244 197.14C78.4262 195.203 79.8106 192.901 82.5544 191.744C83.9365 191.163 85.1923 191.976 85.466 193.178C85.8724 194.933 84.8163 195.84 86.3062 197.159C89.2987 199.778 90.4869 200.671 87.9264 201.792C85.8314 202.747 88.4702 204.326 89.0921 205.262C89.3277 205.057 89.4305 204.88 89.3416 204.751C88.9093 204.34 85.531 204.144 88.9207 208.67C92.4446 213.207 94.0855 216.16 95.2453 218.108C95.3168 218.227 95.3808 218.357 95.4383 218.499C96.0576 219.843 94.6804 222.033 97.1574 223.412C97.6886 223.686 98.3029 224.133 99.0287 224.711C101.017 226.279 104.474 228.849 106.82 228.872C109.788 228.898 108.215 231.685 109.365 234.334Z" fill="#FAC46A"/>
<path d="M143.836 197.435C143.262 200.041 150.451 196.371 151.514 199.222C152.162 200.803 151.872 202.549 151.854 204.163C151.378 205.153 151.233 206.103 152.613 206.584C155.489 207.566 157.499 212.111 159.827 211.521C159.962 211.488 160.081 211.473 160.187 211.472L159.895 211.301C161.67 211.231 159.677 215.378 162.276 215.583C165.03 215.802 166.019 217.146 167.087 219.711C168.163 222.274 173.232 226.875 176.446 226.412C178.637 226.128 179.537 227.992 180.465 230.251C180.49 230.264 180.546 230.33 180.57 230.345C180.822 231.364 180.97 232.402 181.124 233.097C181.279 233.764 181.196 234.352 181.026 234.828C180.954 235.031 180.685 235.246 180.392 235.404C180.391 235.404 180.391 235.404 180.391 235.404C180.025 235.6 179.623 235.714 179.5 235.604C178.953 235.093 177.948 234.677 176.345 234.881L176.442 234.968C176.323 235.033 176.167 235.08 176.009 235.138C172.598 236.166 173.904 233.358 170.069 232.73C166.203 232.116 162.876 233.535 160.056 229.781C157.61 226.541 153.772 230.795 150.742 227.636C150.688 227.589 150.482 227.503 150.429 227.453C149.947 226.921 149.495 226.202 149.077 225.227C146.162 218.328 142.121 224.73 134.479 219.741C134.166 219.591 133.849 219.4 133.53 219.159C130.233 216.675 126.547 209.888 125.237 202.874C125.113 201.302 124.905 199.933 124.453 198.961C123.052 195.459 119.31 190.53 120.914 181.082C121.332 179.14 121.836 177.102 122.481 175.165C125.16 168.166 124.64 167.348 126.455 164.382C126.835 163.796 127.213 163.098 127.57 162.31C129.549 158.274 130.265 153.553 130.005 150.612C129.95 149.261 129.758 148.267 129.429 147.481C128.804 146.134 127.961 145.277 126.099 144.014C124.327 142.811 122.903 140.34 122.842 137.166C122.802 135.571 124.039 134.728 125.419 135.187C127.42 135.851 127.881 137.429 129.888 136.929C133.899 135.94 135.527 135.669 135.421 138.873C135.364 140.481 136.453 140.709 137.62 140.732C138.914 140.926 140.305 141.008 140.623 141.967C141.049 144.074 139.459 144.794 144.087 152.926C146.076 156.963 146.76 160.396 147.165 162.977C147.601 165.888 147.569 168.279 147.441 170.293C147.518 173.92 141.879 180.563 141.808 181.985C141.798 182.11 141.811 182.228 141.849 182.341C142.133 183.086 142.008 183.548 142.528 185.633C143.04 187.602 144.149 190.284 145.38 191.573C146.863 193.136 146.419 194.197 145.65 195.472C144.972 195.903 144.172 196.519 143.836 197.435Z" fill="#FAC46A"/>
<path d="M242.426 315.183C245.477 317.458 248.23 309.677 251.645 310.611C254.575 311.302 255.962 313.908 258.979 314.219C259.893 314.29 260.986 314.197 262.329 313.902C266.05 313.094 269.594 314.021 272.261 314.617C274.653 315.088 276.491 315.577 277.901 315.177C281.344 314.315 280.061 319.36 283.949 319.699C287.901 320.158 289.607 321.895 291.404 324.883C291.726 325.423 292.222 326.06 292.831 326.743C292.872 326.76 292.977 326.843 293.017 326.862C295.707 330.151 300.463 334.615 303.601 334.736C304.235 334.762 304.783 334.918 305.259 335.164C307.593 336.383 308.48 339.977 309.797 341.487C310.271 342.047 310.586 342.624 310.78 343.157C310.863 343.382 310.779 343.72 310.624 344.016C310.624 344.016 310.624 344.016 310.624 344.016C310.431 344.384 310.129 344.687 309.901 344.627C308.794 344.332 307.01 344.166 304.455 344.381C301.814 344.587 301.011 343.73 300.021 342.689C299.217 341.839 298.289 340.846 296.106 340.044C292.363 338.676 289.089 338.668 286.335 336.786L286.659 336.992C285.772 336.455 284.91 335.739 284.045 334.764C280.045 330.579 276.085 336.941 271.956 331.623C271.617 331.257 271.277 330.968 270.945 330.746C266.216 328.399 264.507 332.425 261.648 335.062C260.633 335.821 259.281 336.512 257.444 336.93C250.868 338.528 241.783 336.219 235.834 333.583C233.717 332.624 231.838 331.851 230.314 331.579C227.937 331.148 225.161 330.726 221.892 329.787C220.25 329.303 218.498 328.715 216.424 327.674C214.386 326.34 211.735 326.045 208.141 319.689C207.672 318.633 207.187 317.097 207.006 316.033C206.26 311.075 206.123 308.277 205.641 304.747C205.048 299.775 204.455 294.971 205.41 290.444C206.064 287.364 206.762 283.749 207.269 280.503C207.956 275.275 208.445 270.531 208.636 267.712C208.895 263.896 208.662 262.269 207.019 260.094C206.573 259.511 206.038 258.886 205.383 258.176C203.472 256.109 202.005 252.667 201.865 248.928C201.759 247.088 203.039 246.279 204.699 247.318C207.017 248.775 207.498 250.854 209.735 250.943C214.077 251.141 215.912 251.401 215.807 254.96C215.812 255.076 215.815 255.194 215.817 255.316C215.745 259.552 220.8 259.34 221.063 261.811C221.111 264.149 218.892 265.028 222.492 274.454C223.049 275.949 223.526 277.329 223.948 278.6C226.144 285.927 226.606 289.904 227.192 292.921C227.649 295.354 226.677 299.722 226.455 303.737C226.361 305.531 226.434 307.308 226.869 308.662C227.045 309.209 227.214 309.8 227.359 310.188C227.429 310.378 227.494 310.504 227.51 310.469C227.518 310.452 227.51 310.389 227.488 310.305C227.468 310.224 227.427 310.114 227.45 310.143C226.521 308.332 225.896 308.043 225.789 307.894C225.658 307.78 225.862 307.909 226.188 308.052C226.858 308.359 228.004 308.778 229.158 309.104C231.513 309.775 234.033 310.193 235.728 310.056C238.745 309.809 239.496 311.065 240.557 312.698C240.972 313.507 241.478 314.408 242.426 315.183Z" fill="#FAC46A"/>
<path d="M248.105 355.113C251.006 357.368 254.895 354.644 259.063 354.287C261.072 354.307 263.191 354.833 265.022 356.208C271.404 361.414 269.164 365.384 274.908 369.74C278.073 372.282 279.99 375.641 281.64 378.23C283.112 380.475 284.202 382.22 285.593 382.891C288.784 384.461 284.613 387.641 287.8 390.448C289.842 392.254 290.836 393.86 291.378 395.632C291.698 396.64 291.896 397.732 292.109 398.991C292.343 400.591 293.855 403.689 295.531 404.849L295.014 404.66C297.682 405.805 301.74 405.285 303.489 403.992C303.525 403.966 303.562 403.94 303.599 403.915L303.357 403.949C306.557 401.411 311.642 403.847 314.445 404.073C315.325 404.143 316.054 404.348 316.636 404.603C316.883 404.711 317.057 405.018 317.133 405.343C317.133 405.343 317.133 405.343 317.133 405.343C317.228 405.748 317.171 406.181 316.913 406.295C315.661 406.85 313.866 407.964 311.867 409.963C309.077 412.724 307.716 411.833 304.774 412.206C304.726 412.208 304.586 412.241 304.539 412.24C303.5 412.301 302.283 412.5 300.583 412.944C297.978 413.602 295.467 414.338 292.4 414.179C292.199 414.095 291.575 413.926 291.391 413.81C285.923 412.101 283.201 409.301 281.229 404.869C280.966 404.243 280.698 403.709 280.399 403.217C277.262 397.972 271.186 399.342 269.746 390.531C269.609 389.772 269.43 389.109 269.217 388.535C266.111 381.262 259.437 383.969 254.145 380.947C252.57 380.141 251.418 379.34 250.095 378.491C243.934 375.287 237.295 371.057 233.299 370.338C232.236 370.144 231.1 369.963 229.91 369.788C224.968 369.045 218.785 368.504 211.976 366.431C210.139 365.865 208.141 365.44 205.984 365.015C199.205 363.466 191.635 364.64 181.955 358.902C179.971 357.597 177.662 355.779 175.752 353.304C169.499 343.125 169.25 335.749 167.262 330.87C167.054 330.267 166.85 329.705 166.664 329.194C164.546 323.792 163.604 322.299 158.787 319.522C158.292 319.251 157.786 318.94 157.274 318.593C154.723 316.855 152.151 314.119 150.558 310.827C149.585 308.814 150.805 307.879 152.832 308.478C155.797 309.357 157.318 311.34 159.62 310.756C161.307 310.331 162.63 310.018 163.714 309.984C165.742 310.046 167.134 311.044 168.233 313.888C169.821 318.299 174.662 316.523 175.941 318.949C176.626 320.341 176.152 321.48 177.38 324.028C178.32 325.962 179.871 328.552 182.904 332.28C186.15 336.271 189.112 339.815 189.817 339.714C190.333 339.556 191.844 339.989 193.461 340.159C196.005 340.53 203.386 343.909 210.304 344.979C210.771 345.047 211.244 345.097 211.714 345.124C216.924 345.448 227.55 347.423 234.815 348.47C236.304 348.671 237.619 348.803 238.692 348.81C244.896 348.897 244.071 352.032 248.105 355.113Z" fill="#FAC46A"/>
<path d="M414.803 388.326C415.119 388.521 415.452 388.692 415.938 388.911C416.071 388.97 416.21 389.032 416.36 389.1C416.531 389.176 416.743 389.271 416.976 389.386C417.213 389.503 417.607 389.699 418.095 390.017C418.439 390.244 418.853 390.535 419.378 391.037C419.766 391.428 421.232 392.806 421.754 395.382C422.028 396.748 422.296 398.612 421.789 400.878C421.307 403.152 419.904 405.328 418.625 406.675C415.994 409.373 414.16 410.406 412.618 411.533C409.622 413.61 407.149 414.983 405.764 414.71C405.548 414.656 405.41 414.578 405.362 414.467C404.673 414.548 403.663 414.624 402.911 414.594C402.144 414.57 401.578 414.483 401.138 414.387C400.268 414.19 399.764 413.952 399.298 413.712C398.399 413.23 397.753 412.717 397.102 412.233C395.812 411.262 394.569 410.397 392.672 410.056C391.921 409.921 391.066 409.866 390.07 409.917C383.513 410.251 377.358 406.712 374.289 408.112C371.207 409.509 371.5 404.288 367.262 404.942C366.083 405.12 365.039 405.167 364.071 405.092C361.5 404.887 359.479 403.865 357.041 402.122C355.243 400.828 350.763 398.854 347.219 397.093L347.713 397.229C344.596 396.434 341.461 396.215 339.624 396.926C336.796 398.008 334.119 396.487 331.606 395.017L331.714 395.027C330.734 394.406 329.794 393.851 328.995 393.598C328.195 393.342 327.543 393.021 327.013 392.688C326.789 392.547 326.654 392.222 326.618 391.89C326.618 391.89 326.618 391.89 326.618 391.889C326.572 391.477 326.688 391.052 326.973 390.973C328.186 390.64 329.92 390.04 332.167 389.064C332.186 389.068 332.246 389.069 332.265 389.074C332.538 388.941 332.832 388.795 333.138 388.637C337.864 386.278 338.087 389.349 344.398 388.811C346.205 388.676 347.842 388.43 349.436 388.226C349.619 388.286 350.18 388.389 350.351 388.478C354.508 388.763 356.62 388.244 361.136 390.456C362.947 391.339 364.515 391.278 365.995 390.908C369.619 390.016 372.736 387.401 379.35 391.25C386.485 395.37 389.325 391.729 394.548 389.658C396.212 388.993 398.278 388.516 400.407 388.424C400.829 388.4 401.26 388.384 401.346 388.358C401.381 388.346 401.307 388.326 400.955 388.338C400.628 388.342 399.908 388.443 399.656 388.505C403.754 387.675 406.055 387.886 407.271 387.957C407.535 387.993 407.685 388.036 407.571 388.156C407.453 388.292 407.069 388.446 406.08 389.142C405.158 389.782 403.286 391.475 402.407 393.978C401.517 396.463 401.873 398.413 402.136 399.24C403.211 403.881 405.507 405.314 405.967 405.827C406.754 406.496 407.338 406.83 407.595 406.978C407.911 407.158 408.154 407.275 408.352 407.364C408.516 407.436 408.632 407.481 408.739 407.52C408.957 407.599 409.057 407.621 409.139 407.638C409.22 407.653 409.263 407.653 409.287 407.646C409.376 407.617 409.25 407.519 409.101 407.422C408.789 407.222 408.341 406.997 407.888 406.78C406.965 406.343 405.994 405.923 405.068 405.548C403.206 404.797 401.502 404.221 400.105 403.983C396.822 403.423 392.864 402.858 388.61 401.887C385.026 401.065 381.213 399.95 377.335 398.167C373.858 396.511 370.035 395.542 364.913 392.756C358.365 389.102 353.141 384.378 349.929 379.119C349.228 377.959 348.512 376.738 347.793 375.475C343.19 367.339 338.164 357.353 336.274 351.984C335.66 350.28 335.201 348.927 334.766 347.761C333.671 344.781 332.622 343.134 329.752 339.866C327.474 337.268 325.455 332.949 325.282 328.438C325.237 327.302 325.612 326.621 326.218 326.519C326.75 326.275 327.522 326.553 328.318 327.224C330.656 329.197 331.312 331.595 333.666 331.926C338.365 332.562 340.217 332.878 340.396 337.216C340.533 340.307 343.131 340.645 344.88 341.364C345.564 341.611 346.111 341.919 346.301 342.505C347.005 344.494 344.421 346.22 352.778 353.634C357.127 357.422 360.437 360.322 363.006 362.613C365.342 364.673 367.077 366.167 368.522 367.299C370.606 368.924 372.975 372.813 375.967 375.102C376.805 375.846 378.565 376.695 380.324 377.07C383.481 377.78 388.852 379.43 394.096 380.645C398.428 381.663 402.532 382.437 405.138 382.368C411.039 382.252 410.006 385.208 414.803 388.326Z" fill="#FAC46A"/>
<path d="M217.346 407.246C217.973 408.979 219.377 410.038 220.916 410.659C225.119 413.65 229.266 416.452 229.716 420.207C230.128 424.452 227.771 426.322 228.044 428.229C228.126 428.706 228.416 429.184 229.017 429.588C231.581 431.378 235.212 436.36 238.238 435.808C241.097 435.234 239.513 439.859 243.059 440.426L242.745 440.313C242.851 440.323 242.963 440.329 243.08 440.332C247.051 440.399 249.085 441.722 251.853 444.323C254.608 446.935 264.34 451.206 268.548 450.133C269.246 449.954 269.936 449.938 270.574 450.032C273.77 450.503 276.322 453.809 278.244 454.754C278.947 455.108 279.501 455.49 279.986 455.873C280.19 456.035 280.289 456.373 280.288 456.706C280.288 456.707 280.288 456.707 280.288 456.707C280.288 457.122 280.141 457.532 279.862 457.582C278.485 457.857 276.319 458.214 273.664 459.171C270.923 460.148 269.776 459.594 268.291 458.916C267.091 458.36 265.662 457.707 262.954 457.642C256.939 457.486 252.745 459.3 246.648 455.531C243.474 453.556 240.925 454.505 237.982 454.786C237.898 454.745 237.626 454.674 237.545 454.629C234.873 454.728 231.79 454.334 227.987 450.091C221.994 442.755 217.233 445.13 209.983 438.858C208.18 437.064 206.746 434.993 205.714 432.751C203.662 428.092 202.754 423.375 203.308 423.176C201.398 418.584 199.639 415.115 197.57 413.823C195.455 412.499 192.837 411.525 190.126 410.896C190.856 411.084 190.899 411.052 190.877 411.06C190.836 411.057 190.644 411.045 190.414 411.036C189.937 411.016 189.269 411.003 188.562 410.986C187.129 410.952 185.502 410.893 183.825 410.747C179.738 410.398 175.061 410.934 170.2 411.183C165.528 411.464 159.283 411.605 153.64 409.167C151.532 408.266 149.322 407.132 147.223 405.799C142.539 402.501 137.233 399.305 133.053 393.365C132.024 391.397 130.463 388.889 129.76 387.101C127.362 380.714 127.167 379.248 125.141 373.359C125.11 373.257 125.079 373.154 125.047 373.05C124.045 369.795 124.149 364.794 126.672 360.948C128.02 359.042 129.329 359.973 129.848 361.706C130.662 364.335 130.122 366.567 132.045 367.816C134.653 369.459 136.213 370.325 136.435 371.856C136.519 372.393 136.3 373.026 135.834 374.001C134.547 377.276 139.655 376.388 139.817 377.724C139.941 378.364 139.591 379.028 139.7 380.019C139.889 381.104 140.154 382.004 143.079 384.646C143.384 384.807 144.076 385.159 145.178 385.512C148.455 386.566 151.995 387.392 154.773 388.082C157.737 388.644 159.722 388.674 161.476 388.628C163.205 388.583 166.199 389.459 170.42 389.95C173.246 390.323 176.247 390.494 178.936 390.027C180.587 389.745 182.661 389.538 185.066 389.362C186.27 389.277 187.552 389.197 189.026 389.152C189.768 389.13 190.551 389.115 191.507 389.141C192.517 389.199 193.44 389.136 195.76 389.688C202.267 391.281 207.68 394.518 210.924 396.097C217.546 399.55 215.309 402.16 217.346 407.246Z" fill="#FAC46A"/>
<path d="M426.996 451.51C430.573 453.26 432.977 445.119 437.534 445.801C439.716 446.11 441.153 447.158 442.597 448.032C443.933 449.048 445.464 449.822 447.399 448.793C448.67 448.098 449.762 447.827 450.952 447.49C450.585 448 451.532 447.724 452.066 447.207C452.648 446.687 453.053 445.943 452.881 445.166C452.288 442.789 457.043 445.084 457.265 441.787C457.353 439.419 457.971 438.044 459.154 436.765C459.386 437.01 459.793 437.226 460.226 437.058C461.2 436.904 460.863 434.311 458.907 432.169C457.053 430.008 454.379 428.321 452.41 428.181C451.016 428.077 449.953 427.364 449.026 426.242L450.143 426.897C448.987 425.885 447.468 424.016 446.311 423.039C446.158 422.912 446.01 422.799 445.868 422.706C445.271 422.317 444.879 421.91 444.475 421.526C444.304 421.362 444.213 421.025 444.214 420.691C444.214 420.691 444.214 420.691 444.214 420.69C444.215 420.276 444.341 419.864 444.608 419.817C445.28 419.697 446.144 419.591 447.112 419.394C448.046 419.204 449.11 418.92 450.361 418.518C451.735 418.082 452.737 418.088 453.646 418.374C453.874 418.511 454.568 418.826 454.749 419.021C456.071 419.819 456.375 421.538 460.052 422.993C462.653 424.063 465.139 424.679 467.592 426.317C469.71 427.97 473.64 430.754 472.377 438.514C472.238 439.066 472.08 439.58 471.905 440.077C468.88 445.838 475.323 450.412 465.441 457.363C462.851 458.929 460.902 460.384 458.412 461.828C453.948 464.378 452.229 469.447 445.317 471.622C444.928 471.755 444.522 471.873 444.089 471.976C437.515 473.457 429.827 472.164 422.039 470.449C419.351 469.808 416.996 468.972 415.349 468.566C412.398 467.838 409.406 466.891 406.411 465.655C403.09 464.307 399.58 462.644 396.333 460.511C393.468 458.572 388.859 457.172 387.307 457.247C383.566 456.877 380.58 456.726 377.557 455.898C374.782 455.122 371.331 454.658 367.809 454.771C362.795 455.076 357.942 455.588 354.889 455.72C349.365 455.946 348.185 456.12 343.315 458.559C342.548 458.92 341.647 459.216 340.607 459.381C338.112 459.762 335.107 459.528 332.38 458.155C331.438 457.687 331.076 456.957 331.353 456.408C331.426 455.833 331.79 455.313 332.564 454.9C334.798 453.687 336.901 454.038 337.851 452.029C338.267 451.14 338.622 450.37 338.967 449.726C339.699 447.518 340.318 446.864 343.04 447.751C346.606 448.835 346.453 443.693 348.396 443.596C350.405 443.498 351.176 446.141 359.915 440.881C360.988 440.249 362.016 439.667 363.004 439.13C371.287 434.97 377.251 434.614 381.145 434.259C383.586 434.052 387.456 435.067 390.936 436.168C395.733 437.507 398.433 439.15 401.429 439.921C405.413 440.999 410.994 443.798 415.8 445.859C418.363 446.952 420.559 447.537 421.814 447.335C423.569 447.041 423.703 447.54 424.333 448.565C424.737 449.446 425.399 450.667 426.996 451.51Z" fill="#FAC46A"/>
<path d="M487.075 334.419C487.842 338.977 495.544 338.804 497.645 345.149C497.793 345.632 497.898 346.136 497.954 346.667C498.413 354.471 494.243 355.556 494.194 362.972C494.022 366.185 492.76 369.147 491.378 371.529C489.209 375.403 486.712 377.513 486.896 379.056C487.015 380.289 486.539 379.899 486.02 378.594C485.138 378.137 483.917 378.14 484.61 378.524C484.987 378.699 485.283 378.96 485.552 379.362C485.755 379.52 486.222 381.198 486.855 383.398C487.226 384.696 488.575 386.694 490.41 388.576L490.134 388.385C493.073 390.844 496.598 393.167 499.085 393.492C501.477 393.8 503.055 395.791 504.046 398.292C504.09 398.329 504.185 398.472 504.226 398.512C504.811 400.509 504.612 402.164 504.819 403.274C504.954 404.067 504.92 404.755 504.812 405.34C504.764 405.585 504.516 405.831 504.225 405.996C504.225 405.996 504.225 405.996 504.225 405.996C503.863 406.2 503.439 406.281 503.271 406.089C502.471 405.222 500.936 403.691 498.738 403.15C498.559 403.111 498.393 403.076 498.239 403.041L498.414 403.256C495.084 403.005 496.294 400.453 491.476 398.785C489.037 397.978 486.778 397.766 484.628 397.216C484.526 397.129 484.175 396.933 484.082 396.838C481.698 395.902 479.411 394.59 477.228 391.123C476.019 389.125 474.566 387.96 472.849 385.938C470.914 383.864 467.363 380.338 468.911 373.573C470.861 368.11 472.409 367.953 474.247 366.953C475.543 366.426 476.271 365.871 476.646 365.25C478.658 361.357 473.503 358.344 472.396 355.148C472.128 354.41 471.972 353.675 471.841 352.878C471.118 348.527 469.398 340.595 466.774 338.2C465.567 337.029 464.102 335.832 462.494 334.61C460.457 333.058 457.841 331.8 453.741 328.948C452.852 328.316 451.874 327.725 450.842 327.159C444.805 323.844 436.919 321.707 431.249 316.619C429.795 315.309 428.194 313.875 426.498 312.289C423.053 308.715 418.844 305.814 415.593 299.431C414.401 296.493 413.998 293.592 414.12 291.48C414.648 285.785 416.138 284.047 417.375 280.774C417.73 279.94 418.079 278.978 418.479 277.801C419.477 274.847 422.127 271.424 425.837 269.596C427.692 268.69 428.696 269.846 428.328 271.702C427.807 274.405 426.143 275.845 427.057 277.915C428.905 282.036 429.627 283.61 426.181 285.449C426.149 285.466 426.118 285.483 426.088 285.501C424.752 285.869 425.168 286.871 425.938 287.455C426.7 288.083 427.748 288.335 427.469 288.572C427.237 288.794 426.582 288.98 426.162 289.498C425.764 290.001 425.542 290.948 426.843 292.368C427.15 292.595 427.404 292.604 428.34 292.982C430.897 293.979 434.089 295.207 436.468 296.155C440.069 297.518 442.809 298.625 444.916 299.423C448.379 300.737 454.115 306.608 460.008 308.662C460.145 308.71 460.284 308.76 460.424 308.812C464.072 310.294 470.903 313.05 477.126 318.336C479.676 320.448 481.833 322.423 483.503 323.617C488.59 327.413 486.05 329.53 487.075 334.419Z" fill="#FAC46A"/>
<path d="M374.819 326.121C373.247 323.173 371.239 322.382 368.822 321.18C366.495 320.05 364.17 318.748 363.993 316.513C363.705 312.111 367.633 310.438 365.508 306.55C364.003 303.779 364.422 300.55 363.957 298.451C363.743 297.516 363.418 296.78 362.794 296.328C360.589 294.647 365.594 293.266 363.915 290.529C362.272 287.675 362.759 285.347 364.606 282.519C365.507 281.086 366.976 277.953 367.903 275.891L367.907 277.527C367.671 275.583 366.574 273.595 365.187 273.005C362.864 272.038 363.619 269.167 363.882 267.299L363.923 267.353C363.932 266.863 363.905 266.411 363.818 266.053C363.676 265.474 363.661 264.905 363.724 264.401C363.751 264.187 363.96 263.913 364.21 263.692C364.21 263.692 364.21 263.692 364.21 263.692C364.521 263.416 364.895 263.222 365.056 263.325C365.599 263.675 366.432 264.041 367.646 264.428C367.651 264.439 367.677 264.464 367.682 264.475C368.268 264.733 368.865 264.954 369.547 265.175C373.621 266.604 371.069 268.281 374.106 271.668C375.09 272.837 376.123 273.868 377.042 275.133C377.085 275.832 377.351 277.608 377.049 278.24C377.442 281.273 378.085 281.919 376.786 284.085C375.097 287.9 382.821 287.206 380.04 293.738C380.039 293.741 380.038 293.743 380.037 293.746C377.643 301.324 385.669 299.933 388.48 305.429C389.333 307.052 389.745 308.859 389.901 310.291C389.973 310.997 389.99 311.612 389.864 311.944C389.724 312.284 389.481 312.286 388.581 311.861C389.541 313.636 390.364 314.899 391.411 315.343C393.953 316.439 398.737 317.38 403.476 320.281C403.912 320.546 404.336 320.774 404.814 320.993C409.41 323.122 416.148 323.202 420.96 326.849C426.257 330.815 433.823 336.532 436.882 340.122C436.898 340.141 436.915 340.16 436.931 340.179C439.714 343.528 440.386 344.303 444.289 345.457C446.521 346.138 449.059 348.277 449.965 351.743C450.191 352.609 449.886 353.392 449.252 353.466C448.841 353.924 448.334 354.12 447.664 354.038C445.715 353.805 444.776 352.41 442.995 353.452C439.43 355.556 438.114 356.41 437.105 353.345C436.081 350.284 432.674 353.967 431.727 352.807C431.359 352.367 431.342 351.751 431.041 351.054C430.678 349.977 429.609 348.666 425.044 348.195C417.746 347.505 413.797 346.755 411.044 346.302C408.286 345.858 403.68 341.618 398.918 340.864C398.523 340.802 398.066 340.705 397.613 340.596C392.775 339.451 384.993 335.868 380.21 334.502C375.386 333.173 376.606 330.477 375.474 327.188C375.251 326.845 375.023 326.48 374.819 326.121Z" fill="#FAC46A"/>
<path d="M307.482 243.045C306.976 243.206 306.399 243.477 305.342 243.82C298.945 245.273 293.746 248.536 290.435 246.718C289.739 246.328 289.209 245.945 288.773 245.579C286.598 243.618 286.531 242.634 286.281 241.624C286.12 240.654 286.208 239.822 286.262 239.045C286.382 237.499 286.399 236.192 284.991 235.095C283.301 233.775 282.824 231.725 282.205 230.268C281.956 230.064 281.599 229.156 281.393 228.908C281.13 227.793 280.789 226.937 279.907 226.656C277.691 225.932 282.416 223.695 280.519 222.182C278.622 220.645 278.77 219.16 279.695 216.823C280.595 214.472 280.107 208.768 277.51 207.417C276.044 206.628 276.268 205.385 276.806 203.645L276.851 203.835C277.423 203.127 278.009 202.1 278.138 201.404C278.23 200.916 278.44 200.466 278.694 200.081C278.802 199.919 279.094 199.742 279.403 199.614C279.403 199.614 279.403 199.614 279.404 199.614C279.788 199.456 280.195 199.373 280.298 199.484C280.798 200.062 281.797 200.567 283.696 201.626C283.865 201.723 284.018 201.822 284.156 201.92C284.156 201.959 284.201 202.068 284.199 202.106C286.626 202.867 284.175 204.238 286.345 206.438C288.665 208.794 291.954 209.431 291.441 213.295C290.99 217.223 298.441 214.916 296.323 220.94C296.202 221.302 296.117 221.632 296.063 221.933L295.304 220.662C295.474 225.655 302.239 222.684 304.895 224.295C305.073 224.363 305.191 224.403 305.095 224.282C304.936 224.149 304.86 223.891 303.131 222.951C303.603 223.317 303.785 223.605 303.291 223.765C302.856 223.977 301.23 223.811 298.719 225.036C296.73 225.93 296.771 226.269 296.621 226.453C296.553 226.632 296.693 226.656 296.857 226.644C297.206 226.606 297.703 226.406 298.175 226.188C299.134 225.736 300.039 225.185 300.647 224.594C302.437 222.843 304.932 220.454 308.401 218.826C310.433 217.878 312.366 217.369 314.384 217.201C319.963 216.85 327.484 213.124 335.097 218.074C335.573 218.409 336.056 218.77 336.536 219.16C340.615 223.279 344.467 228.391 346.16 231.275C347.924 234.361 348.331 235.072 351.399 235.961C353.151 236.474 354.868 238.319 355.228 241.268C355.4 242.773 354.191 243.675 353.051 243.674C351.326 243.646 350.735 242.389 349.073 243.467C345.74 245.622 344.468 246.458 344.125 243.638C343.759 240.809 340.334 244.385 339.746 243.332C339.155 242.294 340.702 239.806 334.876 238.819C331.325 238.253 328.951 237.794 327.388 237.563C327.085 237.756 326.793 237.878 326.503 238.016C326.147 238.2 325.636 237.592 324.62 237.131C323.638 236.665 322.221 236.4 321.164 237.067C320.236 237.654 318.571 238.179 317.736 238.669C316.296 239.431 314.889 240.598 314.514 241.921C314.176 243.137 313.436 243.215 312.384 243.01C311.859 242.907 311.262 242.733 310.549 242.642C309.783 242.572 309.167 242.48 307.482 243.045Z" fill="#FAC46A"/>
<path d="M312.962 218.555C313.571 216.724 307.993 222.398 308.025 220.943C308.072 219.499 310.756 216.255 309.386 216.306C308.008 216.347 309.215 213.554 307.732 214.543C306.245 215.527 309.74 211.637 308.509 212.084C307.276 212.528 307.467 211.776 308.237 210.172C309.005 208.567 308.821 206.416 306.975 207.552C305.13 208.688 307.112 205.585 307.403 204.683C307.494 204.403 307.671 204.068 307.874 203.737C307.961 203.596 308.179 203.338 308.406 203.093C308.406 203.093 308.406 203.093 308.406 203.093C308.688 202.787 308.982 202.503 309.048 202.492C309.367 202.44 310.04 202.147 311.321 201.28C313.712 199.664 311.653 201.989 313.281 201.53C314.909 201.072 317.255 199.312 316.737 201.375C316.225 203.442 321.673 197.844 319.725 202.056C317.802 206.284 323.382 200.317 325.075 200.359C326.588 200.391 325.4 203.982 325.777 204.903C325.819 205.009 325.882 205.079 325.971 205.101C326.827 205.315 328.251 205.23 328.509 206.789C328.778 208.358 331.565 207.049 331.473 209.368C331.383 211.69 331.511 214.773 331.293 216.614C331.208 217.321 331.156 217.822 331.188 218.148C331.244 218.676 331.536 218.765 332.322 218.571C333.055 218.389 333.297 219.223 332.547 221.261C332.17 222.283 331.333 223.497 330.655 223.887C329.691 224.473 329.807 223.71 328.56 225.084C326.072 227.832 325.1 228.874 325.881 226.802C326.285 225.726 325.671 226.241 324.984 226.888C324.354 227.493 323.663 228.214 323.69 227.902C323.745 227.253 325.421 224.925 322.759 225.738C320.089 226.542 318.983 226.427 318.139 226.465C317.291 226.499 317.682 223.682 316.284 223.743C314.874 223.803 313.632 221.779 311.99 222.336C311.756 222.416 311.595 222.433 311.494 222.399C310.886 222.19 312.453 220.135 312.962 218.555Z" fill="#FAC46A"/>
<path d="M231.608 193.385C229.65 191.534 228.036 199.454 225.3 198.241C224.616 197.944 224.03 197.466 223.395 196.903C223.073 196.619 222.741 196.317 222.303 195.984C222.063 195.814 221.856 195.647 221.481 195.44C221.16 195.238 220.67 195.013 219.88 194.614C216.669 192.812 216.082 191.095 215.353 189.925C214.702 188.715 214.23 187.797 213.449 186.952C210.597 183.771 212.371 180.17 210.229 179.622C208.139 179.112 212.918 176.979 211.167 175.805C209.42 174.642 209.651 173.44 210.603 171.383C211.585 169.337 210.872 164.452 208.223 164.021C207.659 163.926 207.325 163.703 207.147 163.394L207.172 163.438C206.613 162.482 206.917 160.377 207.641 158.795C207.9 158.304 208.166 157.93 208.327 157.632C208.573 157.181 208.942 156.882 209.322 156.656C209.484 156.56 209.822 156.517 210.156 156.517C210.156 156.517 210.156 156.517 210.156 156.517C210.572 156.517 210.98 156.585 211.033 156.704C211.214 157.105 211.618 157.694 212.437 157.975C212.767 158.089 213.138 158.051 213.582 158.006C214.971 157.845 215.169 158.228 215.229 158.783C215.232 158.793 215.251 158.815 215.253 158.825C215.381 159.541 215.329 160.414 216.649 161.341C219.18 163.126 222.543 163.511 222.127 167.213C221.665 170.838 229.16 168.593 226.712 174.164C225.547 176.763 226.688 177.495 228.35 177.539C229.173 177.547 230.154 177.412 230.87 176.973C231.212 176.74 231.517 176.44 231.433 175.808C231.216 175.232 231.279 173.985 227.38 172.206C226.869 172.01 226.507 171.898 226.243 171.816C226.028 171.745 225.866 171.694 225.739 171.652C225.512 171.574 225.411 171.528 225.367 171.493C225.208 171.343 225.685 171.332 226.108 171.365C226.558 171.402 227.086 171.503 227.637 171.649C228.732 171.942 229.92 172.417 231.042 172.917C233.304 173.916 235.364 175.019 236.725 174.888C239.445 174.622 243.177 173.863 246.981 175.254C246.981 175.254 246.982 175.254 246.982 175.254C248.773 175.949 250.898 175.659 253.683 175.743C256.384 175.792 260.282 176.561 262.877 179.027C263.404 179.523 263.921 180.05 264.41 180.599C267.426 184.551 270.269 189.606 271.14 192.407C272.129 195.539 272.281 196.212 274.859 197.52C276.328 198.274 277.396 200.354 276.751 203.071C276.41 204.434 275.032 205.022 274.008 204.801C272.493 204.473 272.389 203.278 270.59 204.001C266.997 205.467 265.728 206.16 266.267 203.617C266.761 201.045 262.829 204.025 262.637 203.073C262.419 202.141 264.353 199.849 259.58 198.852C256.936 198.362 255.127 198.042 253.761 197.766C253.135 197.835 252.822 197.97 252.52 198.103C252.193 198.265 251.954 197.655 251.015 197.047C250.11 196.442 248.606 195.898 247.122 196.227C246.599 196.343 245.969 196.398 245.263 196.414C242.176 196.498 237.859 195.923 235.847 197.063C233.413 198.443 233.529 195.236 231.608 193.385Z" fill="#FAC46A"/>
<path d="M274.935 148.837C276.517 150.933 279.28 143.347 281.372 144.811C283.484 146.275 283.211 150.49 286.017 149.947C288.821 149.402 291.112 152.633 292.564 151.094C293.975 149.599 293.437 154.451 295.13 153.912C295.181 153.895 295.233 153.874 295.288 153.848C297.134 152.941 298.023 153.754 299.252 155.623C299.734 156.357 300.694 157.114 301.752 157.597C302.761 158.103 304.101 158.195 303.829 157.888C303.897 157.692 303.66 157.47 303.273 157.234C302.729 156.917 302.49 157.075 302.668 157.041C303.068 157.112 305.36 156.179 306.097 155.536C306.427 155.238 306.838 155.029 307.252 154.885C307.428 154.824 307.768 154.843 308.096 154.903C308.096 154.903 308.097 154.903 308.097 154.904C308.505 154.979 308.895 155.12 308.925 155.245C309.063 155.876 309.599 156.769 310.791 158.271C311.625 159.358 311.573 160.23 311.169 160.95C310.476 162.016 309.193 163.278 306.517 165.169C306.457 165.211 306.391 165.256 306.32 165.301C303.4 166.835 302.326 167.466 300.94 168.113C299.619 168.672 298.358 168.781 296.923 167.654C295.439 166.477 294.267 167.986 292.935 168.988C291.76 169.911 290.485 170.417 288.766 168.034C285.183 163.05 283.577 171.077 279.131 171.504C274.664 171.93 269.93 166.547 267.232 166.389C265.104 166.268 262.305 166.367 259.264 165.297C258.518 165.025 257.789 164.684 257.071 164.244C253.715 162.147 248.548 163.702 243.956 159.448C242.605 158.13 240.587 156.212 239.156 153.764C238.073 150.558 236.718 147.053 236.255 144.689C235.793 142.06 235.53 141.224 234.843 138.696C234.718 138.237 234.502 137.731 234.187 137.103C233.485 135.696 233.834 133.596 235.884 131.732C236.385 131.281 237.126 130.965 237.594 131.43C238.277 131.199 238.744 131.499 239.124 131.844C240.195 132.937 239.593 133.996 241.476 134.467C245.245 135.4 246.693 135.746 244.715 137.504C244.636 137.575 244.568 137.643 244.51 137.71C244.054 137.125 243.957 137 244.098 136.809C244.236 136.635 244.583 136.45 244.958 136.242C245.715 135.839 246.563 135.346 246.454 135.652C246.32 136.351 243.822 138.066 248.572 139.823C249.884 140.309 251.038 140.797 252.045 141.275C252.418 140.279 253.388 140.412 254.357 140.368C255.542 140.312 257.989 143.738 260.981 143.642C262.043 143.605 263.431 143.887 264.909 144.216C267.114 144.693 269.887 145.251 271.468 144.604C273.968 143.584 273.378 146.738 274.935 148.837Z" fill="#FAC46A"/>
<path d="M191.012 85.7111C191.227 87.6329 193.967 80.1609 194.587 81.5126C195.195 82.864 194.084 86.9239 195.389 86.344C196.726 85.7757 196.84 88.8645 197.896 87.4099C198.982 85.9661 197.201 90.8808 198.276 90.0533C199.38 89.2415 199.603 90.0759 199.51 91.9048C199.475 92.6296 199.63 93.4002 199.951 94.0284C200.298 94.7124 200.665 94.9491 201.817 95.8259C201.836 95.8297 201.858 95.9011 201.877 95.9056C202.149 96.011 202.43 95.9158 202.797 95.6725C203.658 95.073 203.284 95.237 202.883 95.8937C202.461 96.5275 201.935 97.544 201.817 97.9924C201.743 98.2715 201.601 98.6209 201.438 98.9731C201.369 99.1225 201.186 99.407 200.993 99.679C200.993 99.6792 200.993 99.6794 200.992 99.6796C200.752 100.018 200.495 100.337 200.428 100.353C200.097 100.428 199.463 100.804 198.1 101.624C195.524 103.043 197.157 100.464 195.64 100.516L195.721 100.624C195.733 100.674 195.744 100.723 195.753 100.77C195.88 101.448 195.65 101.784 195.448 102.197C195.234 102.589 194.994 102.953 194.794 103.224C194.386 103.763 194.141 103.921 194.2 102.924C194.168 100.879 191.208 108.1 191.606 103.54C191.801 98.925 189.053 106.624 187.562 107.302C186.055 107.977 185.606 103.182 184.674 103.325C184.669 103.326 184.664 103.327 184.659 103.328L185.858 103.568C184.922 103.82 183.623 104.585 182.527 103.356C181.415 102.119 179.528 104.617 178.391 102.533C177.255 100.449 175.587 97.797 174.87 96.0712C174.15 94.3448 173.972 93.954 172.97 94.8356C172.392 95.3411 171.745 94.7248 171.391 92.5506C171.188 91.4454 171.623 90.0263 171.92 89.357C172.444 88.3891 172.724 89.1156 173.164 87.3147C174.049 83.7151 174.405 82.3358 174.717 84.5305C175.033 86.7253 175.874 81.9241 176.15 82.5215C176.411 83.1178 176.063 85.9661 178.034 83.9793C180.009 81.9939 181.018 81.5544 181.736 81.1108C182.458 80.6677 183.483 83.3134 184.655 82.5622C185.822 81.813 187.847 82.9106 188.916 81.5987C189.156 81.4446 190.047 82.001 190.303 81.8765C190.308 81.8717 190.313 81.867 190.318 81.8621C191.6 80.6783 190.778 83.7858 191.012 85.7111Z" fill="#FAC46A"/>
<path d="M350.017 148.027C349.685 152.874 357.318 154.457 358.608 159.458C358.623 159.538 358.62 159.646 358.599 159.785C358.533 162.688 355.638 166.163 359.739 170.725C361.097 172.228 362.189 173.974 363.143 175.713C363.487 177.089 366.208 180.472 368.259 180.508C371.469 180.722 368.668 185.152 372.721 186.542C375.462 187.469 377.132 188.665 378.579 190.423L378.428 190.324C379.116 191.124 379.764 192.051 380.464 193.127C382.623 196.486 391.507 203.478 396.114 203.874C397.23 203.969 398.206 204.374 399.068 204.972C401.795 206.855 403.328 210.637 404.59 212.592C405.12 213.395 405.385 214.15 405.508 214.789C405.56 215.06 405.402 215.376 405.173 215.619C405.173 215.619 405.173 215.619 405.172 215.619C404.887 215.921 404.49 216.108 404.247 215.951C403.075 215.178 401.131 214.407 398.349 214.312C396.05 214.236 395.027 213.682 394.061 212.864C392.862 211.854 391.767 210.467 388.432 209.381C382.418 207.422 377.719 208.02 372.393 202.509C372.04 202.141 371.683 201.82 371.329 201.544C371.301 201.52 371.201 201.466 371.173 201.442C366.377 197.372 361.015 201.982 355.011 192.128C353.304 189.188 351.581 187.192 349.732 184.976C346.383 181.16 341.107 182.195 335.878 174.343C334.663 172.379 333.51 170 332.691 166.827C330.723 158.301 330.918 148.218 329.337 144.938C329.299 144.859 329.26 144.788 329.22 144.724C328.571 143.673 326.929 142.078 324.307 139.729C321.455 137.147 318.493 134.154 316.113 131.394C315.623 130.826 315.107 130.315 314.691 129.96C314.489 129.786 314.311 129.654 314.252 129.613C314.213 129.572 314.217 129.63 314.879 129.885C312.988 129.076 305.789 130.372 297.206 127.715C295.214 127.019 293.219 126.104 291.431 124.984C285.174 121.167 278.811 115.203 274.571 109.66C272.004 106.319 269.972 103.273 268.671 101.071C265.511 95.6179 264.699 94.1471 260.609 90.4368C260.37 90.2149 260.124 89.9911 259.869 89.7622C257.23 87.3837 254.635 83.2398 253.849 78.7101C253.464 76.4368 254.925 75.9323 256.715 77.1343C259.34 78.8861 260.311 81.2313 262.712 81.3038C266.324 81.4034 268.289 81.4847 269.372 83.3985C269.679 83.9649 269.901 84.7257 270.079 85.7493C270.866 89.9491 275.704 87.9565 276.753 89.871C277.804 91.6556 275.91 93.8125 284.051 99.0097C284.442 99.2475 284.843 99.4742 285.283 99.7133C294.587 104.596 299.35 105.427 302.754 106.079C303.029 106.122 303.333 106.193 303.652 106.282C305.528 107.163 311.516 108.159 321.727 110.552C323.163 111.039 324.007 111.48 324.765 111.858C331.124 115.35 335.041 119.898 339.644 124.055C343.198 127.305 347.105 131.743 349.348 135.374C349.506 135.611 349.652 135.839 349.786 136.058C353.458 142.165 350.236 142.885 350.017 148.027Z" fill="#FAC46A"/>
<path d="M492.072 233.727C491.083 236.548 499.214 235.965 499.006 239.052C498.799 242.133 494.912 243.812 496.808 246.652C498.519 249.207 497.276 252.698 498.571 253.904L498.263 253.13C498.415 253.249 498.592 253.338 498.8 253.393C500.959 253.941 496.279 256.295 498.201 257.611C500.121 258.899 500.02 260.204 499.344 262.503C498.713 264.537 499.864 268.826 502.282 269.324L502.22 269.268C502.561 269.364 502.912 269.404 503.259 269.373C506.153 269.115 505.609 273.461 506.05 275.042C506.195 275.539 506.2 276.045 506.133 276.504C506.105 276.699 505.912 276.981 505.683 277.225C505.683 277.225 505.683 277.225 505.683 277.225C505.399 277.528 505.061 277.771 504.921 277.713C504.242 277.427 503.024 277.218 501.125 277.544C497.992 278.085 499.119 276.245 497.077 275.083C497.066 275.067 497.016 275.035 497.005 275.018C496.725 274.842 496.38 274.662 495.952 274.469C492.231 272.713 488.437 271.907 488.151 267.52C488.007 263.569 481.776 265.457 482.087 260.516C482.053 260.333 481.76 259.842 481.745 259.657C481.821 259.228 481.953 258.745 482.159 258.215C484.706 251.828 476.793 253.844 474.191 249.219C472.208 245.693 473.15 240.44 473.121 237.034C473.11 235.992 473.013 235.138 472.719 234.543C472.426 233.958 472.075 233.322 471.767 232.855C471.621 232.636 471.464 232.431 471.455 232.541C471.457 232.602 471.5 232.765 471.715 233.146C471.897 233.5 472.468 234.217 472.585 234.348C472.547 234.338 472.84 234.653 473.116 234.885C473.398 235.127 473.643 235.297 473.784 235.391C474.073 235.578 474.032 235.547 473.896 235.484C473.601 235.341 472.943 235.027 472.261 234.643C471.901 234.456 471.544 234.255 471.188 234.036C467.353 231.666 461.221 232.575 456.949 228.918C454.374 226.683 451.091 223.945 448.269 220.739C447.043 219.035 445.757 217.348 444.993 216.032C443.054 212.466 442.638 212.233 439.687 208.84C439.249 208.23 438.912 207.405 438.811 206.488C438.651 204.89 439.198 202.863 440.853 201.326C441.434 200.785 442.121 200.712 442.676 200.914C443.241 201.08 443.738 201.362 444.062 201.806C445.017 203.069 444.449 204.238 446.35 204.721C447.109 204.905 447.777 205.048 448.344 205.184C450.554 204.796 450.588 203.498 449.316 204.754C448.609 205.602 449.467 205.513 450.274 205.051C451.11 204.62 451.986 203.944 452.097 204.38C452.421 205.261 450.525 207.332 455.858 208.563C456.006 208.571 456.173 208.579 456.35 208.581C461.084 208.662 464.333 209.081 466.363 209.287C468.43 209.477 471.836 213.245 475.508 213.478C476.457 213.539 477.61 213.787 478.861 214.114C480.89 214.941 482.902 214.397 488.274 219.042C491.653 222.799 491.564 224.159 492.252 225.144C492.783 226.138 493.234 226.842 493.716 227.357C494.813 228.525 494.771 229.336 494.325 230.163C493.776 231.164 492.615 232.174 492.072 233.727Z" fill="#FAC46A"/>
<path d="M195.087 22.951C199.162 22.686 199.386 15.4829 204.412 14.5031C209.411 13.5998 211.187 16.6012 216.225 14.2594C221.344 11.9361 227.169 13.0148 229.196 11.1214C231.238 9.23039 232.39 13.3359 235.492 11.7377C236.141 11.402 236.76 11.1435 237.361 10.9521C237.445 10.924 237.712 10.9053 237.798 10.8839C240.135 10.3489 242.176 10.7421 244.737 11.836C246.193 12.4471 248.906 13.1899 251.587 13.9305C254.909 14.8195 258.384 15.5805 260.386 15.1008C264.031 14.2356 266.898 18.0913 268.838 19.3721C269.448 19.7723 269.891 20.2103 270.207 20.6249C270.342 20.8008 270.345 21.0885 270.27 21.3497C270.27 21.3498 270.269 21.35 270.269 21.3502C270.175 21.6754 269.959 21.9594 269.729 21.9374C268.612 21.8315 266.872 21.9036 264.683 22.5773C260.624 23.8606 260.876 21.2732 255.929 21.3413C253.8 21.3916 252.012 21.7916 250.315 22.0721C248.049 22.4461 246.212 22.5929 243.413 21.8206C241.698 21.3692 240.373 21.9022 239.167 22.6433L239.642 22.5692C237.269 24.238 235.38 26.608 229.762 25.4551C221.206 23.8328 222.013 30.4778 215.336 33.6738C210.544 36.0176 203.939 37.0846 198.826 38.5236C196.432 39.2664 194.561 39.7358 193.221 40.3383C188.401 42.483 182.474 45.2013 175.863 46.7191C169.787 48.1023 163.683 52.5362 157.274 54.7524C156.609 54.9879 155.945 55.1949 155.282 55.3687C147.71 57.367 137.041 60.3579 131.944 61.3316C126.846 62.3095 125.62 62.5628 121.6 65.3675C119.301 66.9768 115.631 68.2044 112.014 68.0386C110.221 67.9688 109.936 66.7547 111.213 65.4968C113.034 63.696 115.031 63.3827 115.507 61.4977C116.451 57.7359 116.905 56.25 120.439 56.5025C123.999 56.7409 123.589 52.5391 125.414 52.1698C127.257 51.7878 128.229 53.9337 135.705 48.3C142.349 43.2857 146.469 40.6415 149.362 38.7607C149.752 38.5108 150.12 38.2763 150.469 38.0531C153.599 36.0186 161.386 34.7802 166.591 32.0239C171.82 29.1544 183.309 26.0587 186.806 23.4312C188.944 21.8432 189.946 22.1118 191.262 22.5641C192.309 22.7691 193.458 23.0672 195.087 22.951Z" fill="#FDD29B"/>
<path d="M441.297 88.9554C444.6 92.9653 450.798 91.3684 455.81 94.3901C456.708 94.9633 457.498 95.6055 458.195 96.3326C463.711 102.416 461.596 105.491 467.876 110.512C469.861 112.102 471.615 113.88 473.226 115.593C476.926 119.499 479.52 123.236 481.923 124.276C485.45 125.813 482.698 129.097 486.931 131.999C491.053 134.821 492.839 137.302 494.94 141.195C494.976 141.224 495.067 141.33 495.101 141.362C495.154 141.472 495.207 141.583 495.261 141.696C497.373 145.954 505.169 157.159 509.581 159.993C511.62 161.282 512.984 163.317 513.994 165.428C515.19 167.922 515.915 170.543 516.717 172.262C517.18 173.254 517.433 174.141 517.522 174.856C517.559 175.158 517.392 175.41 517.163 175.556C517.163 175.556 517.163 175.556 517.163 175.556C516.877 175.739 516.493 175.752 516.273 175.492C515.213 174.236 513.249 172.588 510.466 171.014C509.682 170.571 509.055 170.154 508.527 169.735C505.579 167.419 506.027 165.267 501.263 160.989C496.059 156.362 491.713 154.366 487.466 148.357L487.687 148.585C487.281 148.085 486.897 147.576 486.489 147.011C481.271 139.733 475.307 142.687 469.139 131.449C467.499 128.479 465.883 126.612 464.235 125.354C459.449 121.656 454.389 121.826 447.683 116.196C445.881 114.712 444.097 113.066 442.855 112.003C434.793 105.503 426.846 97.0684 421.808 93.2523C419.525 91.5278 416.968 89.6849 414.043 86.8018C409.957 82.7872 405.562 78.3924 401.175 73.943C397.939 70.6545 393.695 67.9053 389.146 65.6304C383.231 62.6218 377.811 59.5087 373.221 56.5722C366.593 52.1568 355.708 47.9459 347.797 44.9781C345.287 44.0421 343.107 43.1628 341.413 42.4241C334.246 39.2521 332.561 38.4709 325.222 37.1347C321.015 36.3408 315.498 34.1394 311.462 30.6901C309.449 28.8853 310.546 28.0912 312.975 28.4545C316.576 28.9508 319.226 30.3987 321.456 29.5542C325.901 27.8379 327.672 27.188 331.644 30.1634C335.649 33.1278 338.819 29.8528 341.294 30.9638C343.269 31.8255 343.297 33.4824 350.063 34.7434C351.956 35.0924 354.259 35.4102 357.278 35.7595C371.64 37.339 380.154 40.5622 385.449 42.8948C388.722 44.2867 393.078 47.6184 397.601 50.6118C401.055 52.8422 404.478 55.298 407.663 57.3406C413.353 60.8384 421.312 68.7296 427.058 74.6226C428.908 76.4231 431.376 78.2004 433.132 79.1543C439.094 82.3397 437.61 84.42 441.297 88.9554Z" fill="#FDD29B"/>
<path d="M545.901 351.68C543.834 356.835 549.791 361.801 548.033 368.316C547.888 368.85 547.731 369.341 547.564 369.803C545.685 374.948 542.683 375.925 542.363 382.865C541.999 390.42 538.548 397.437 539.498 400.883C539.598 401.252 539.639 401.58 539.634 401.87C539.575 404.372 536.205 404.645 536.449 408.967C536.713 413.809 535.735 416.644 533.643 420.576C532.22 423.219 530.197 429.784 528.173 435.214C528.163 435.248 528.117 435.341 528.105 435.374C527.023 437.805 526.252 440.064 526.124 441.666C525.77 446.148 521.645 449.493 519.533 451.997C519.527 452.013 519.503 452.059 519.497 452.075C519.267 452.338 519.05 452.585 518.852 452.818C518.144 453.649 517.444 454.148 516.855 454.474C516.604 454.612 516.311 454.555 516.085 454.404C516.085 454.404 516.085 454.404 516.084 454.404C515.803 454.215 515.628 453.879 515.771 453.588C516.137 452.84 516.52 451.871 516.694 450.709L516.663 450.775C516.81 449.636 516.923 448.345 516.942 446.905C517.025 441.208 519.57 441.758 521.435 434.906C521.656 434.098 521.841 433.326 522.012 432.566L521.904 432.824C522.54 427.525 521.663 423.534 524.182 416.788C526.545 410.226 522.523 407.208 524.385 399.766C524.725 398.389 525.264 396.868 526.074 395.165C531.36 384.142 525.044 381.918 525.772 370.488C525.843 369.331 525.96 368.153 526.113 366.963C527.463 356.444 531.644 344.336 532.254 337.908C532.303 337.362 532.352 336.802 532.404 336.229C532.961 329.279 534.387 320.735 535.698 313.119C535.736 312.872 535.776 312.627 535.816 312.382C536.473 308.371 536.603 303.925 536.577 299.437C536.561 297.207 536.507 294.94 536.426 292.82C536.385 291.759 536.336 290.726 536.274 289.832C536.244 289.392 536.208 288.974 536.177 288.673C536.156 288.387 536.095 288.137 536.214 288.456C535.685 286.55 535.248 284.629 534.945 282.717C533.15 271.566 531.187 256.051 530.733 248.767C530.54 245.712 530.418 243.654 530.148 241.765C529.779 239.17 529.152 237.012 527.767 233.22C526.395 229.477 525.598 224.044 526.261 219.185C526.583 216.752 527.87 216.963 528.952 219.128C530.522 222.271 530.595 225.11 532.453 226.476C536.166 229.207 537.618 230.359 536.954 235.058C536.647 237.218 537.412 238.617 538.341 239.75C539.429 241.088 540.73 242.03 540.825 243.429C541.017 246.026 538.681 246.593 543.727 258.747C548.807 270.87 551.314 277.424 553.193 281.91C553.315 282.198 553.441 282.533 553.558 282.869C555.867 292.838 552.743 300.424 553.141 308.611C553.181 310.261 553.135 312.243 553.034 314.408C552.578 323.318 550.108 333.214 550.161 338.688C550.152 339.251 550.159 339.776 550.184 340.253C550.548 346.811 547.972 346.538 545.901 351.68Z" fill="#FDD29B"/>
<path d="M378.765 521.328C374.682 520.108 371.892 526.738 366.961 526.078C362.036 525.413 361.143 522.024 355.607 523.051C350.066 524.076 344.387 521.953 341.961 523.452C339.523 524.951 339.109 520.705 335.613 521.766C332.21 522.799 330.031 522.35 327.038 521.098C326.966 521.068 326.893 521.038 326.82 521.008C323.668 519.711 314.238 518.588 310.621 520.053C308.634 520.901 306.394 520.223 304.68 519.266C303.314 518.502 302.059 517.637 301.01 517.235C300.288 516.957 299.728 516.602 299.32 516.247C299.146 516.096 299.088 515.812 299.118 515.542C299.118 515.542 299.118 515.542 299.118 515.542C299.156 515.205 299.322 514.889 299.565 514.871C300.742 514.796 302.473 514.339 304.745 513.352C304.976 513.252 305.19 513.165 305.4 513.091C308.801 511.778 309.095 514.037 313.976 513.08C318.694 512.095 321.624 509.978 326.823 510.753C327.253 510.818 327.709 510.903 328.192 511.011C334.3 512.376 335.489 505.975 344.202 509.254C352.947 512.51 353.577 505.819 362.073 504.524C368.23 503.579 375.698 504.93 381.256 505.467C383.382 505.67 385.221 505.76 386.608 505.574C390.847 504.945 396.469 504.144 400.188 503.083C401.162 502.807 402.185 502.531 403.249 502.273C410.189 500.578 418.459 494.847 427.598 494.334C430.027 494.193 432.742 494.114 435.523 494.19C442.311 494.509 449.539 494.689 453.491 494.988C458.891 495.393 460.245 495.453 465.045 493.665C467.81 492.624 471.73 492.23 475.428 492.975C477.286 493.335 477.308 494.589 475.743 495.625C473.465 497.115 471.279 497.028 470.314 498.783C468.381 502.279 467.45 503.649 463.828 502.58C460.236 501.496 459.399 505.67 457.396 505.561C455.396 505.432 455.049 503.188 445.61 506.487C442.537 507.55 439.89 508.381 437.605 509.052C433.474 510.376 430.739 511.426 428.634 512.296C425.561 513.534 418.106 513.977 412.739 516.872C411.074 517.753 408.775 518.751 406.082 519.765C398.399 522.586 391.336 522.381 387.965 523.606C385.031 524.532 383.804 523.977 382.402 523.131C381.464 522.548 380.427 521.824 378.765 521.328Z" fill="#FDD29B"/>
<path d="M155.006 455.856C157.32 458.48 161.498 456.567 165.052 456.987C166.182 457.17 167.28 457.567 168.273 458.329C172.726 461.771 171.722 465.279 177.119 467.283C179.524 468.147 181.534 469.379 183.412 470.385C186.072 471.75 188.279 472.967 189.937 472.778C192.994 472.444 191.712 476.512 195.638 477.039C199.573 477.577 201.551 478.977 204.128 481.532C206.719 484.069 215.74 489.211 219.818 489.1C222.099 489.027 223.946 490.36 225.411 491.658L225.34 491.635C226.613 492.654 227.777 493.731 228.782 494.29C229.492 494.686 230.036 495.115 230.436 495.524C230.605 495.698 230.636 495.987 230.576 496.253C230.576 496.253 230.576 496.253 230.576 496.253C230.501 496.583 230.285 496.876 230.02 496.859C228.73 496.778 226.743 496.891 224.146 497.384C223.926 497.426 223.717 497.46 223.515 497.486C223.502 497.481 223.459 497.47 223.446 497.464C219.071 497.779 219.367 495.384 213.941 494.303C208.269 493.156 204.287 494.006 198.751 490.098C193.199 486.21 189.459 491.549 182.091 484.88C180.918 483.835 179.885 483.113 178.866 482.601C173.011 479.607 168.678 482.602 161.427 479.411C159.318 478.484 157.31 477.311 155.334 476.062C148.485 471.856 142.736 466.048 139.005 464.102C136.59 462.845 133.709 461.406 130.975 460.109C127.774 458.602 123.643 456.434 120.098 453.485C115.579 449.781 110.192 446.231 105.469 442.03C103.079 439.913 100.777 437.663 98.8818 435.144C93.4397 427.958 85.6986 417.751 82.6435 412.544C80.7017 409.281 79.7339 407.546 78.2176 405.747C77.3417 404.699 76.2723 403.644 74.74 402.234C72.355 400.017 69.8492 396.24 69.1806 392.051C69.0123 390.995 69.3545 390.33 69.8797 390.39C70.2965 390.159 70.9081 390.416 71.6317 390.989C73.7678 392.687 74.7199 394.789 76.7491 394.964C80.8222 395.298 82.4236 395.452 83.3152 399.274C83.4839 399.957 83.7232 400.448 84.0587 400.865C85.5027 402.653 88.4038 401.915 89.2255 403.361C90.2702 405.105 88.4379 406.782 97.1372 412.833C105.882 418.824 110.46 422.37 113.683 424.797C114.842 425.663 116.211 427.157 117.726 428.897C120.251 431.845 123.337 435.395 126.658 437.275C129.799 439.131 134.061 441.822 139.255 444.28C143.078 446.203 146.086 447.852 148.219 448.542C153.427 450.238 152.049 452.476 155.006 455.856Z" fill="#FDD29B"/>
<path d="M12.4554 228.039C14.5583 223.171 8.83947 217.965 11.2663 211.672C13.5361 206.054 16.7157 205.629 18.4515 200.237C18.6209 199.726 18.7774 199.165 18.9181 198.549C20.4918 191.688 25.0445 185.98 24.7264 182.622C24.4079 179.273 28.5467 180.374 29.052 175.964C29.5396 171.565 30.8627 169.291 33.2741 166.1C34.3541 164.666 35.8333 161.698 36.937 158.42C36.9381 158.412 36.9456 158.389 36.9469 158.381C38.3846 154.251 39.6251 149.766 39.4866 147.175C39.3806 145.35 40.016 143.62 40.9878 142.065C42.5193 139.582 44.9099 137.734 46.221 136.396C46.8903 135.7 47.5311 135.25 48.0881 134.949C48.3243 134.822 48.6147 134.878 48.8445 135.024C48.8446 135.024 48.8448 135.024 48.8449 135.024C49.1309 135.205 49.3225 135.525 49.1989 135.8C48.6008 137.134 47.9135 139.265 48.0258 141.96C48.074 143.153 48.0138 144.019 47.8476 144.753C47.3453 147.097 45.6552 148.051 45.1347 152.942C44.8545 155.708 44.9669 158.091 44.9123 160.446L44.9318 160.368C44.86 163.655 44.3619 166.922 42.2262 170.906C38.4499 177.812 43.8695 181.585 36.8652 190.59C31.9055 196.916 33.4113 200.402 33.8044 205.528C34.0026 207.546 34.0515 209.793 33.5232 212.609C32.2855 219.058 29.4894 226.351 27.9123 232.625C27.1719 235.357 26.7465 238.152 26.788 240.144C26.9157 246.32 27.8182 254.776 27.3576 263.797C27.1641 267.562 27.5679 271.671 28.0673 275.908C28.6778 281.964 29.896 286.235 30.6316 292.186C30.7946 293.654 30.9954 295.238 31.216 296.883C32.4738 306.216 34.2731 317.375 34.8596 323.055C35.5565 329.738 35.7577 331.376 38.442 337.181C38.9056 338.184 39.3256 339.316 39.6819 340.543C40.5256 343.436 40.9861 346.802 40.7905 349.971C40.7554 351.157 40.2814 351.48 40.1482 351.942C39.7712 351.81 39.71 351.779 39.5351 351.707C39.3813 351.639 39.2268 351.543 39.072 351.423C38.7627 351.182 38.4444 350.821 38.1336 350.348C36.3303 347.595 36.0888 344.961 34.1645 343.873C33.5177 343.497 32.9469 343.187 32.427 342.851C29.8721 341.275 28.8776 339.973 29.2363 336.279C29.6696 331.848 25.3085 331.19 25.0309 328.773C24.758 326.351 26.985 325.71 21.6857 314.617C19.0983 309.185 17.2206 304.885 15.7897 301.392C14.288 297.717 13.2717 294.901 12.4454 292.476C11.3004 289.428 10.9776 282.511 11.0831 277.06C11.0685 274.379 10.9587 271.683 10.5857 269.224C9.38272 261.674 9.64155 246.187 8.71091 239.678C7.95094 234.674 9.38702 233.473 10.9779 230.823C11.464 230.071 11.9674 229.198 12.4554 228.039Z" fill="#FDD29B"/>
<ellipse cx="203.994" cy="192.355" rx="41.3172" ry="66.259" fill="white"/>
<ellipse cx="394.743" cy="222.355" rx="41.3172" ry="66.259" fill="white"/>
<ellipse cx="387.509" cy="231.396" rx="29.2714" ry="46.9416" fill="black"/>
<ellipse cx="195.865" cy="204.225" rx="27.6294" ry="44.3083" fill="black"/>
<circle cx="291.22" cy="347.541" r="50.4808" fill="black"/>
</svg>
