<svg width="531" height="424" viewBox="0 0 531 424" fill="none" xmlns="http://www.w3.org/2000/svg">
<path d="M151.582 254.29C119.667 374.39 170.129 411.066 199.35 414.392C282.593 432.636 406.557 418.143 458.133 408.617C532.042 390.559 535.121 322.705 527.422 291.035C524.734 279.976 490.101 183.941 476.577 136.435C476.528 136.263 476.464 136.1 476.385 135.939C444.575 71.2971 391.834 55.9858 369.15 56.3914C368.976 56.3945 368.805 56.3825 368.633 56.3567C236.108 36.4302 168.718 179.976 151.582 254.29Z" fill="#D77A62"/>
<path d="M4.76493 218.345C-27.5073 312.331 112.111 386.474 184.063 410.065C121.217 370.998 146.546 258.346 168.957 207.389C250.487 13.1888 383.558 47.1186 440.412 87.4589C325.478 -18.6891 194.907 -6.6944 143.479 13.4711C57.4195 46.3096 15.1448 163.736 4.76493 218.345Z" fill="#A3461A"/>
<path d="M231.206 145.516C309.558 52.6375 393.338 84.0757 425.434 111.405C450.509 137.049 460.848 158.755 462.111 165.959C466.272 189.693 483.131 246.271 493.43 272.696C520.388 341.82 490.261 370.622 471.828 376.382C411.69 401.267 276.265 394.815 216.07 388.479C121.37 376.728 186.702 221.607 231.206 145.516Z" fill="#E69889"/>
<ellipse cx="302.033" cy="205.032" rx="34.0596" ry="45.995" transform="rotate(6.98187 302.033 205.032)" fill="white"/>
<ellipse cx="292.67" cy="206.445" rx="16.8301" ry="22.7279" transform="rotate(6.98187 292.67 206.445)" fill="black"/>
<ellipse cx="292.67" cy="206.445" rx="16.8301" ry="22.7279" transform="rotate(6.98187 292.67 206.445)" fill="black"/>
<ellipse cx="380.829" cy="205.032" rx="34.0596" ry="45.995" transform="rotate(6.98187 380.829 205.032)" fill="white"/>
<ellipse cx="366.886" cy="210.535" rx="16.8301" ry="22.7279" transform="rotate(6.98187 366.886 210.535)" fill="black"/>
<ellipse cx="366.886" cy="210.535" rx="16.8301" ry="22.7279" transform="rotate(6.98187 366.886 210.535)" fill="black"/>
<path d="M375.412 277.296C366.374 284.939 331.222 293.124 308.463 280.579C304.004 278.924 300.729 269.572 320.635 275.333C324.194 276.363 326.886 277.144 328.859 277.722C339.102 279.001 355.326 279.03 367.642 271.945C371.017 269.004 381.465 273.225 375.412 277.296Z" fill="black"/>
</svg>
