<svg width="351" height="523" viewBox="0 0 351 523" fill="none" xmlns="http://www.w3.org/2000/svg">
<path d="M98.3833 522.156C-1.77262 515.267 -18.0838 412.522 16.5258 378.277C100.849 301.543 152.889 188.377 164.848 133.572C185.988 65.8299 232.442 47.6184 256.905 46.5047C259.038 46.4076 260.586 44.2894 259.863 42.2802L250.971 17.556C250.878 17.2965 250.819 17.0078 250.802 16.7325C249.077 -11.5283 275.248 2.18699 289.378 13.1756C289.914 13.5924 290.576 13.8181 291.255 13.8221C316.629 13.9726 327.188 19.5177 329.303 22.3093C336.212 34.5668 317.639 45.2799 306.616 51.4081C304.615 52.5206 304.596 55.3522 306.502 56.6213C337.941 77.5617 352.298 115.157 350.761 134.26C329.715 395.828 193.906 513.984 98.8378 522.153C98.6872 522.166 98.5341 522.166 98.3833 522.156Z" fill="#80362F"/>
<path d="M98.3833 522.156C-1.77262 515.267 -18.0838 412.522 16.5258 378.277C100.849 301.543 152.889 188.377 164.848 133.572C185.988 65.8299 232.442 47.6184 256.905 46.5047C259.038 46.4076 260.586 44.2894 259.863 42.2802L250.971 17.556C250.878 17.2965 250.819 17.0078 250.802 16.7325C249.077 -11.5283 275.248 2.18699 289.378 13.1756C289.914 13.5924 290.576 13.8181 291.255 13.8221C316.629 13.9726 327.188 19.5177 329.303 22.3093C336.212 34.5668 317.639 45.2799 306.616 51.4081C304.615 52.5206 304.596 55.3522 306.502 56.6213C337.941 77.5617 352.298 115.157 350.761 134.26C329.715 395.828 193.906 513.984 98.8378 522.153C98.6872 522.166 98.5341 522.166 98.3833 522.156Z" fill="#80362F"/>
<ellipse cx="265.955" cy="237.48" rx="30.824" ry="41.6257" transform="rotate(6.98187 265.955 237.48)" fill="white"/>
<ellipse cx="259.136" cy="244.299" rx="15.2313" ry="20.5688" transform="rotate(6.98187 259.136 244.299)" fill="black"/>
<ellipse cx="259.136" cy="244.299" rx="15.2313" ry="20.5688" transform="rotate(6.98187 259.136 244.299)" fill="black"/>
<ellipse cx="193.478" cy="236.005" rx="31.833" ry="42.9882" transform="rotate(6.98187 193.478 236.005)" fill="white"/>
<ellipse cx="197.959" cy="241.148" rx="15.7299" ry="21.2421" transform="rotate(6.98187 197.959 241.148)" fill="black"/>
<ellipse cx="197.959" cy="241.148" rx="15.7299" ry="21.2421" transform="rotate(6.98187 197.959 241.148)" fill="black"/>
<path d="M172.806 184.997C191.696 175.206 202.862 178.772 206.902 181.389C216.06 177.014 215.349 173.844 213.849 172.806C196.07 160.818 175.755 171.783 167.82 178.765C160.763 189.219 168.203 187.275 172.806 184.997Z" fill="black"/>
<path d="M302.437 195.391C281.895 180.46 268.84 181.48 263.988 183.245C253.993 176.397 255.111 173.234 256.919 172.509C278.319 164.243 300.368 180.76 308.718 190.052C315.73 202.785 307.452 198.917 302.437 195.391Z" fill="black"/>
<ellipse cx="222.078" cy="311.769" rx="19.4394" ry="20.4247" fill="black"/>
<path d="M221.26 330.085C225.297 330.026 229.39 328.186 232.641 326.106C235.377 324.355 234.999 320.454 231.996 319.217C221.831 315.034 218.44 320.664 217.853 326.195C217.633 328.27 219.173 330.115 221.26 330.085Z" fill="#FFA785"/>
</svg>
