<svg width="1871" height="194" viewBox="0 0 1871 194" fill="none" xmlns="http://www.w3.org/2000/svg">
<path d="M10.3967 6.03711L101.003 6.03711C106.734 6.03711 111.316 10.9772 110.99 16.8327C109.174 48.7691 97.0452 79.9063 97.0452 101.062C97.0452 110.114 102.351 116.143 115.303 116.143C132.326 116.143 154.584 110.796 175.097 103.488C181.41 101.236 188.049 105.9 188.333 112.743L190.872 176.369C191.099 182.181 186.573 187.019 180.885 187.019H9.98533C3.99881 187.019 -0.62585 181.658 0.0692676 175.57C6.89277 116.129 7.04881 63.5167 0.523222 17.7335C-0.356314 11.5584 4.3109 6.03711 10.4109 6.03711H10.3967Z" fill="#F7F3F3"/>
<path d="M209.867 95.0318C209.867 40.1239 248.737 0.00732422 318.547 0.00732422C388.356 0.00732422 427.226 40.1239 427.226 95.0318C427.226 149.94 388.342 193.064 318.547 193.064C248.751 193.064 209.867 151.741 209.867 95.0318ZM318.547 92.6199C327.682 92.6199 335.627 82.9721 335.627 66.9749C335.627 48.5657 327.668 35.9103 318.547 35.9103C309.425 35.9103 301.169 48.5802 301.169 66.9749C301.169 82.9576 309.127 92.6199 318.547 92.6199Z" fill="#F7F3F3"/>
<path d="M444.901 101.672C444.901 25.0566 482.594 0.00732422 536.203 0.00732422C576.889 0.00732422 607.587 5.89187 644.4 2.11414C649.535 1.59107 654.018 5.68845 654.018 10.9773V62.8339C654.018 68.8056 648.401 73.1064 642.825 71.3629C618.794 63.8946 596.749 60.945 582.449 60.945C568.15 60.945 558.886 66.074 558.886 76.332C558.886 85.0789 568.022 90.8182 582.449 90.8182C596.877 90.8182 619.645 89.4088 644.216 86.1687C649.422 85.4858 654.018 89.6413 654.018 95.0027V182.123C654.018 187.412 649.55 191.509 644.414 190.986C607.204 187.194 574.207 193.078 536.217 193.078C482.608 193.078 444.916 158.992 444.916 101.672H444.901Z" fill="#F7F3F3"/>
<path d="M724.013 6.03711L858.142 6.03711C862.469 6.03711 866.129 9.23365 866.88 13.5926C874.896 60.5381 906.701 114.821 917.227 176.427C918.177 181.963 913.964 187.034 908.488 187.034H801.398C796.163 187.034 792.063 182.399 792.574 177.067C794.73 154.4 795.411 140.277 795.411 129.424C795.411 118.57 790.701 111.014 782.445 111.014C774.189 111.014 769.493 118.25 769.493 129.424C769.493 140.597 770.401 154.415 772.415 177.125C772.884 182.443 768.798 187.034 763.592 187.034H680.305C674.801 187.034 670.588 181.934 671.567 176.384C682.405 115.184 717.515 61.8022 715.175 15.5686C714.919 10.3815 718.948 6.03711 724.027 6.03711H724.013ZM782.431 82.6669C791.567 82.6669 795.397 73.92 795.397 62.4561C795.397 48.5802 792.162 36.8111 783.027 36.8111C773.891 36.8111 770.061 48.5802 770.061 62.4561C770.061 73.92 773.011 82.6669 782.431 82.6669Z" fill="#F7F3F3"/>
<path d="M944.479 6.03711L1035.47 6.03711C1041.1 6.03711 1045.6 10.89 1045.29 16.6583C1043.51 48.6528 1031.33 79.8772 1031.33 101.062C1031.33 110.114 1036.63 116.143 1049.58 116.143C1066.68 116.143 1089.02 110.753 1109.59 103.415C1115.8 101.207 1122.33 105.784 1122.6 112.511L1125.17 176.558C1125.39 182.268 1120.94 187.034 1115.35 187.034H944.082C938.194 187.034 933.641 181.76 934.336 175.773C941.202 116.143 941.344 63.4005 934.776 17.5301C933.91 11.4712 938.507 6.03711 944.493 6.03711H944.479Z" fill="#F7F3F3"/>
<path d="M1156.67 17.131C1155.85 11.2901 1160.18 6.0303 1165.94 5.91406C1205.02 5.12945 1249.93 0.596191 1294.85 0.596191C1350.21 0.596191 1367.59 15.678 1367.59 40.4222C1367.59 59.122 1351.09 69.9902 1335.19 72.4021C1327.53 73.6081 1322.52 76.02 1322.52 80.5533C1322.52 85.6823 1327.53 88.0943 1335.19 88.0943C1365.24 88.0943 1382.32 105.893 1382.32 133.95C1382.32 167.732 1351.69 190.064 1303.68 190.064C1261.86 190.064 1239.48 187.042 1215.92 187.042C1198.24 187.042 1181.29 187.405 1166.72 188.713C1160.69 189.25 1155.72 183.976 1156.42 177.815C1162.92 120.016 1163 62.2168 1156.67 17.1456V17.131ZM1264.5 135.447C1272.46 135.447 1278.35 126.7 1278.35 116.442C1278.35 103.467 1272.46 93.5138 1264.5 93.5138C1255.96 93.5138 1251.25 103.467 1251.25 116.442C1251.25 126.7 1255.96 135.447 1264.5 135.447ZM1268.19 69.2201C1274.67 67.4911 1277.45 61.0108 1277.45 52.787C1277.45 41.9188 1273.62 32.5761 1264.49 32.5761C1253.91 32.5761 1251.49 44.3597 1252.25 56.8408C1252.74 65.1227 1260.35 71.3124 1268.18 69.2201H1268.19Z" fill="#F7F3F3"/>
<path d="M1399.11 95.0245C1399.11 40.1166 1438 0 1507.79 0C1577.59 0 1616.47 40.1166 1616.47 95.0245C1616.47 149.932 1577.59 193.057 1507.79 193.057C1438 193.057 1399.11 151.734 1399.11 95.0245ZM1507.79 92.6125C1516.93 92.6125 1524.87 82.9648 1524.87 66.9675C1524.87 48.5584 1516.92 35.903 1507.79 35.903C1498.67 35.903 1490.42 48.5729 1490.42 66.9675C1490.42 82.9503 1498.37 92.6125 1507.79 92.6125Z" fill="#F7F3F3"/>
<path d="M1676.57 87.4835C1676.57 62.7248 1652.05 58.0317 1641.04 18.4673C1639.31 12.234 1643.9 6.02979 1650.22 6.02979L1733.98 6.02979C1740.09 6.02979 1744.59 11.8272 1743.28 17.9587C1741.78 25.0202 1741.06 32.0671 1741.06 38.0097C1741.06 49.7788 1745.77 57.9155 1754.02 57.9155C1762.28 57.9155 1766.99 49.7788 1766.99 38.0097C1766.99 32.0671 1766.28 25.0202 1764.76 17.9587C1763.46 11.8417 1767.95 6.02979 1774.07 6.02979L1854.63 6.02979C1860.97 6.02979 1865.52 12.234 1863.81 18.4818C1852.81 58.5693 1828.26 62.9573 1828.26 87.469C1828.26 111.981 1859.55 117.197 1870.6 175.403C1871.75 181.418 1867.21 187.012 1861.23 187.012H1769.37C1763.54 187.012 1759.06 181.694 1759.94 175.781C1762.53 158.345 1763.74 144.164 1763.74 133.921C1763.74 122.151 1759.03 114.015 1750.79 114.015C1742.55 114.015 1737.82 122.166 1737.82 133.921C1737.82 144.164 1739.04 158.36 1741.62 175.781C1742.5 181.694 1738.02 187.012 1732.19 187.012H1643.56C1637.57 187.012 1633.04 181.433 1634.18 175.417C1645.21 116.63 1676.55 112.751 1676.55 87.469L1676.57 87.4835Z" fill="#F7F3F3"/>
</svg>
