<svg width="20" height="22" viewBox="0 0 20 22" fill="none" xmlns="http://www.w3.org/2000/svg">
<path d="M15.8673 3.42721C14.9956 2.47868 14.5152 1.26077 14.5153 0H10.574V15.07C10.5442 15.8857 10.1831 16.6585 9.56672 17.2254C8.95038 17.7922 8.12704 18.1088 7.27041 18.1083C5.45918 18.1083 3.95408 16.6985 3.95408 14.9484C3.95408 12.8581 6.07143 11.2903 8.25255 11.9345V8.09404C3.85204 7.53499 0 10.7921 0 14.9484C0 18.9955 3.52041 21.8758 7.25765 21.8758C11.2628 21.8758 14.5153 18.7767 14.5153 14.9484V7.30408C16.1135 8.39769 18.0324 8.98444 20 8.98122V5.22588C20 5.22588 17.602 5.33526 15.8673 3.42721Z" fill="#F7F3F3"/>
</svg>
